<svg xmlns="http://www.w3.org/2000/svg" xmlns:xlink="http://www.w3.org/1999/xlink" width="216" zoomAndPan="magnify" viewBox="0 0 162 30.000001" height="40" preserveAspectRatio="xMidYMid meet" version="1.0"><defs><g/><clipPath id="1dfd275914"><path d="M 2.613281 0 L 159.386719 0 L 159.386719 29.03125 L 2.613281 29.03125 Z M 2.613281 0 " clip-rule="nonzero"/></clipPath><clipPath id="6ab05be975"><path d="M 2.613281 0 L 49.789062 0 L 49.789062 29.03125 L 2.613281 29.03125 Z M 2.613281 0 " clip-rule="nonzero"/></clipPath></defs><g clip-path="url(#1dfd275914)"><path fill="#ffffff" d="M 2.613281 0 L 159.386719 0 L 159.386719 29.03125 L 2.613281 29.03125 Z M 2.613281 0 " fill-opacity="1" fill-rule="nonzero"/><path fill="#d9d9d9" d="M 2.613281 0 L 159.386719 0 L 159.386719 29.03125 L 2.613281 29.03125 Z M 2.613281 0 " fill-opacity="1" fill-rule="nonzero"/></g><g clip-path="url(#6ab05be975)"><path fill="#000000" d="M 17.515625 0.328125 C 17.042969 0.328125 16.023438 0.273438 14.460938 0.164062 C 12.964844 0.0546875 11.792969 0 10.9375 0 L 9.980469 0 L 9.980469 0.492188 C 11.601562 0.566406 13.015625 0.988281 14.226562 1.757812 C 15.4375 2.523438 16.386719 3.613281 17.078125 5.019531 L 8.015625 22.742188 C 6.398438 25.898438 4.605469 27.992188 2.636719 29.035156 L 11.402344 29.035156 C 9.945312 28.441406 9.214844 27.472656 9.214844 26.113281 C 9.214844 25.3125 9.40625 24.523438 9.789062 23.753906 C 10.042969 23.242188 10.179688 22.976562 10.199219 22.960938 L 10.335938 22.605469 L 12.929688 17.5 L 23.226562 17.5 L 25.65625 22.605469 C 26.566406 24.488281 27.019531 25.894531 27.019531 26.828125 C 27.019531 28.019531 26.402344 28.753906 25.164062 29.035156 L 31.207031 29.035156 Z M 13.996094 15.445312 L 18.28125 7.105469 L 22.242188 15.445312 Z M 49.769531 29.035156 L 44.285156 29.035156 L 38.679688 17.28125 L 30.191406 17.28125 L 31.800781 20.628906 C 34.007812 25.207031 36.355469 28.007812 38.847656 29.035156 L 33.390625 29.035156 L 27.789062 17.28125 L 26.675781 14.949219 L 19.703125 0.328125 L 22.378906 0.328125 C 22.742188 1.28125 23.25 2.476562 23.90625 3.921875 C 24.632812 5.476562 25.042969 6.402344 25.132812 6.691406 C 25.226562 6.855469 25.308594 7.046875 25.382812 7.269531 L 29.070312 14.949219 L 37.566406 14.949219 L 30.515625 0.164062 L 33.191406 0.164062 C 33.554688 1.117188 34.066406 2.3125 34.71875 3.757812 C 35.449219 5.3125 35.859375 6.234375 35.949219 6.527344 C 36.039062 6.691406 36.121094 6.882812 36.195312 7.105469 L 39.964844 14.949219 L 41.082031 17.28125 L 42.613281 20.460938 C 44.851562 25.109375 47.234375 27.925781 49.765625 28.910156 L 49.765625 29.035156 Z M 49.769531 29.035156 " fill-opacity="1" fill-rule="nonzero"/></g><g fill="#000000" fill-opacity="1"><g transform="translate(53.365724, 16.197838)"><g><path d="M 0.375 -0.140625 L 0.359375 -1.65625 L 0.375 -1.78125 L 0.359375 -1.875 L 0.375 -1.96875 L 0.375 -2.375 L 0.359375 -2.453125 L 0.390625 -3.015625 L 0.375 -3.171875 L 0.390625 -3.375 L 0.40625 -3.46875 L 0.53125 -3.53125 L 0.671875 -3.515625 L 0.765625 -3.53125 L 1.03125 -3.53125 L 1.125 -3.515625 L 1.3125 -3.515625 L 1.46875 -3.53125 L 2.015625 -3.53125 L 2.125 -3.515625 L 2.421875 -3.53125 L 2.515625 -3.46875 L 2.578125 -3.328125 L 2.5625 -3.125 L 2.578125 -2.875 L 2.515625 -2.765625 L 2.421875 -2.71875 L 2.03125 -2.734375 L 1.9375 -2.71875 L 1.734375 -2.71875 L 1.59375 -2.734375 L 1.4375 -2.734375 L 1.34375 -2.671875 L 1.28125 -2.5625 L 1.296875 -2.34375 L 1.28125 -2.234375 L 1.28125 -2.09375 L 1.34375 -2 L 1.4375 -1.953125 L 1.546875 -1.953125 L 1.75 -1.9375 L 2.015625 -1.953125 L 2.265625 -1.9375 L 2.375 -1.90625 L 2.421875 -1.796875 L 2.421875 -1.359375 L 2.375 -1.203125 L 2.265625 -1.140625 L 1.859375 -1.140625 L 1.75 -1.15625 L 1.65625 -1.125 L 1.546875 -1.15625 L 1.4375 -1.140625 L 1.34375 -1.09375 L 1.296875 -1 L 1.296875 -0.453125 L 1.28125 -0.359375 L 1.296875 -0.203125 L 1.234375 -0.046875 L 1.140625 0 L 0.890625 0.015625 L 0.53125 0 L 0.421875 -0.046875 Z M 0.375 -0.140625 "/></g></g></g><g fill="#000000" fill-opacity="1"><g transform="translate(56.115332, 16.197838)"><g><path d="M 1.484375 0.046875 L 1.390625 0.015625 L 1.28125 0.015625 L 1.203125 -0.03125 L 1.09375 -0.0625 L 1 -0.109375 L 0.921875 -0.171875 L 0.75 -0.265625 L 0.6875 -0.328125 L 0.546875 -0.5 L 0.4375 -0.671875 L 0.40625 -0.765625 L 0.40625 -0.859375 L 0.375 -0.96875 L 0.375 -1.0625 L 0.359375 -1.21875 L 0.359375 -1.578125 L 0.34375 -1.78125 L 0.359375 -1.875 L 0.34375 -1.984375 L 0.359375 -2.078125 L 0.34375 -2.1875 L 0.359375 -2.28125 L 0.34375 -2.578125 L 0.359375 -2.78125 L 0.328125 -2.984375 L 0.359375 -3.078125 L 0.359375 -3.375 L 0.40625 -3.484375 L 0.5 -3.53125 L 1.03125 -3.53125 L 1.15625 -3.484375 L 1.21875 -3.390625 L 1.21875 -3.28125 L 1.1875 -3.125 L 1.1875 -3.03125 L 1.203125 -2.890625 L 1.203125 -2.484375 L 1.1875 -2.390625 L 1.203125 -2.078125 L 1.21875 -1.984375 L 1.21875 -1.09375 L 1.25 -0.984375 L 1.3125 -0.90625 L 1.390625 -0.84375 L 1.5 -0.796875 L 1.59375 -0.765625 L 1.75 -0.75 L 1.890625 -0.765625 L 2.09375 -0.828125 L 2.171875 -0.90625 L 2.21875 -0.984375 L 2.265625 -1.078125 L 2.28125 -1.234375 L 2.28125 -1.5 L 2.296875 -1.59375 L 2.28125 -1.78125 L 2.296875 -1.890625 L 2.28125 -1.984375 L 2.296875 -2.375 L 2.28125 -2.484375 L 2.28125 -2.78125 L 2.296875 -2.890625 L 2.28125 -3.375 L 2.34375 -3.5 L 2.453125 -3.53125 L 2.921875 -3.53125 L 3.078125 -3.484375 L 3.125 -3.375 L 3.140625 -3.296875 L 3.140625 -2.875 L 3.15625 -2.78125 L 3.140625 -2.6875 L 3.140625 -2.578125 L 3.125 -2.421875 L 3.140625 -2.28125 L 3.125 -2.171875 L 3.125 -2.078125 L 3.15625 -1.96875 L 3.15625 -1.875 L 3.125 -1.78125 L 3.140625 -1.375 L 3.109375 -0.859375 L 3.078125 -0.765625 L 3.015625 -0.671875 L 3 -0.578125 L 2.921875 -0.5 L 2.875 -0.40625 L 2.640625 -0.203125 L 2.5625 -0.15625 L 2.46875 -0.109375 L 2.390625 -0.0625 L 2.296875 -0.03125 L 2.1875 0 L 1.984375 0.046875 L 1.734375 0.0625 Z M 1.484375 0.046875 "/></g></g></g><g fill="#000000" fill-opacity="1"><g transform="translate(59.596492, 16.197838)"><g><path d="M 0.375 -0.140625 L 0.375 -0.25 L 0.390625 -0.34375 L 0.375 -0.453125 L 0.390625 -1.0625 L 0.375 -1.15625 L 0.375 -1.359375 L 0.390625 -1.453125 L 0.375 -1.65625 L 0.390625 -1.75 L 0.375 -1.96875 L 0.390625 -2.0625 L 0.375 -2.171875 L 0.390625 -2.265625 L 0.375 -2.359375 L 0.390625 -2.46875 L 0.375 -2.5625 L 0.390625 -2.671875 L 0.390625 -2.765625 L 0.375 -2.875 L 0.390625 -2.984375 L 0.390625 -3.078125 L 0.359375 -3.34375 L 0.421875 -3.46875 L 0.578125 -3.53125 L 1.09375 -3.53125 L 1.234375 -3.484375 L 1.28125 -3.328125 L 1.296875 -3.078125 L 1.28125 -2.96875 L 1.296875 -2.1875 L 1.28125 -2.078125 L 1.296875 -1.96875 L 1.28125 -1.828125 L 1.28125 -1.25 L 1.296875 -1.15625 L 1.296875 -0.96875 L 1.328125 -0.859375 L 1.421875 -0.8125 L 2.3125 -0.796875 L 2.421875 -0.8125 L 2.515625 -0.765625 L 2.578125 -0.65625 L 2.5625 -0.5625 L 2.578125 -0.453125 L 2.5625 -0.359375 L 2.5625 -0.140625 L 2.515625 -0.0625 L 2.375 0 L 0.578125 0 L 0.421875 -0.0625 Z M 0.375 -0.140625 "/></g></g></g><g fill="#000000" fill-opacity="1"><g transform="translate(62.310784, 16.197838)"><g><path d="M 0.375 -0.140625 L 0.375 -0.25 L 0.390625 -0.34375 L 0.375 -0.453125 L 0.390625 -1.0625 L 0.375 -1.15625 L 0.375 -1.359375 L 0.390625 -1.453125 L 0.375 -1.65625 L 0.390625 -1.75 L 0.375 -1.96875 L 0.390625 -2.0625 L 0.375 -2.171875 L 0.390625 -2.265625 L 0.375 -2.359375 L 0.390625 -2.46875 L 0.375 -2.5625 L 0.390625 -2.671875 L 0.390625 -2.765625 L 0.375 -2.875 L 0.390625 -2.984375 L 0.390625 -3.078125 L 0.359375 -3.34375 L 0.421875 -3.46875 L 0.578125 -3.53125 L 1.09375 -3.53125 L 1.234375 -3.484375 L 1.28125 -3.328125 L 1.296875 -3.078125 L 1.28125 -2.96875 L 1.296875 -2.1875 L 1.28125 -2.078125 L 1.296875 -1.96875 L 1.28125 -1.828125 L 1.28125 -1.25 L 1.296875 -1.15625 L 1.296875 -0.96875 L 1.328125 -0.859375 L 1.421875 -0.8125 L 2.3125 -0.796875 L 2.421875 -0.8125 L 2.515625 -0.765625 L 2.578125 -0.65625 L 2.5625 -0.5625 L 2.578125 -0.453125 L 2.5625 -0.359375 L 2.5625 -0.140625 L 2.515625 -0.0625 L 2.375 0 L 0.578125 0 L 0.421875 -0.0625 Z M 0.375 -0.140625 "/></g></g></g><g fill="#000000" fill-opacity="1"><g transform="translate(65.025077, 16.197838)"><g/></g></g><g fill="#000000" fill-opacity="1"><g transform="translate(66.392317, 16.197838)"><g><path d="M 1.359375 0.046875 L 1.15625 0.015625 L 0.953125 -0.0625 L 0.859375 -0.09375 L 0.75 -0.140625 L 0.6875 -0.21875 L 0.515625 -0.328125 L 0.375 -0.46875 L 0.28125 -0.65625 L 0.25 -0.734375 L 0.234375 -0.84375 L 0.21875 -0.9375 L 0.25 -1.046875 L 0.34375 -1.09375 L 0.734375 -1.109375 L 0.828125 -1.09375 L 0.921875 -1.109375 L 1.015625 -1.0625 L 1.1875 -0.890625 L 1.265625 -0.828125 L 1.359375 -0.78125 L 1.609375 -0.75 L 1.703125 -0.765625 L 1.859375 -0.78125 L 2.03125 -0.859375 L 2.09375 -0.9375 L 2.140625 -1.0625 L 2.109375 -1.1875 L 2.046875 -1.25 L 1.859375 -1.328125 L 1.0625 -1.421875 L 0.890625 -1.484375 L 0.546875 -1.671875 L 0.359375 -1.90625 L 0.28125 -2.078125 L 0.25 -2.28125 L 0.234375 -2.4375 L 0.25 -2.6875 L 0.34375 -2.96875 L 0.515625 -3.203125 L 0.765625 -3.359375 L 0.9375 -3.46875 L 1.125 -3.53125 L 1.21875 -3.546875 L 1.3125 -3.546875 L 1.421875 -3.578125 L 1.8125 -3.5625 L 2.015625 -3.53125 L 2.296875 -3.4375 L 2.625 -3.203125 L 2.734375 -3.046875 L 2.875 -2.78125 L 2.90625 -2.59375 L 2.875 -2.515625 L 2.78125 -2.4375 L 2.6875 -2.453125 L 2.453125 -2.453125 L 2.203125 -2.4375 L 2.09375 -2.5 L 2.03125 -2.609375 L 1.84375 -2.734375 L 1.75 -2.765625 L 1.59375 -2.78125 L 1.4375 -2.78125 L 1.34375 -2.75 L 1.1875 -2.65625 L 1.125 -2.59375 L 1.09375 -2.453125 L 1.125 -2.296875 L 1.203125 -2.234375 L 1.390625 -2.140625 L 1.65625 -2.078125 L 1.796875 -2.078125 L 1.90625 -2.0625 L 2 -2.0625 L 2.109375 -2.046875 L 2.5 -1.921875 L 2.59375 -1.875 L 2.671875 -1.828125 L 2.765625 -1.75 L 2.953125 -1.515625 L 3.015625 -1.21875 L 3.03125 -1.0625 L 3 -0.8125 L 2.9375 -0.625 L 2.890625 -0.515625 L 2.84375 -0.453125 L 2.6875 -0.296875 L 2.34375 -0.09375 L 2.25 -0.046875 L 2.15625 -0.03125 L 2.0625 0 L 1.953125 0.015625 L 1.859375 0.046875 L 1.75 0.0625 Z M 1.359375 0.046875 "/></g></g></g><g fill="#000000" fill-opacity="1"><g transform="translate(69.611127, 16.197838)"><g><path d="M 0.96875 -0.15625 L 0.96875 -0.65625 L 0.953125 -0.953125 L 0.96875 -1.0625 L 0.953125 -1.171875 L 0.984375 -1.3125 L 0.96875 -1.46875 L 0.96875 -1.859375 L 0.984375 -2.015625 L 0.96875 -2.578125 L 0.90625 -2.671875 L 0.828125 -2.71875 L 0.375 -2.734375 L 0.25 -2.71875 L 0.140625 -2.765625 L 0.078125 -2.875 L 0.09375 -3.375 L 0.140625 -3.484375 L 0.25 -3.53125 L 1.75 -3.515625 L 1.875 -3.53125 L 2.171875 -3.53125 L 2.28125 -3.546875 L 2.375 -3.546875 L 2.46875 -3.53125 L 2.578125 -3.546875 L 2.6875 -3.5 L 2.734375 -3.390625 L 2.71875 -2.984375 L 2.734375 -2.875 L 2.6875 -2.765625 L 2.5625 -2.71875 L 2.296875 -2.734375 L 2.203125 -2.71875 L 2.015625 -2.71875 L 1.90625 -2.671875 L 1.859375 -2.578125 L 1.875 -2.46875 L 1.859375 -2.375 L 1.875 -1.375 L 1.859375 -1.15625 L 1.875 -1.0625 L 1.859375 -0.75 L 1.84375 -0.65625 L 1.859375 -0.5625 L 1.875 -0.359375 L 1.859375 -0.25 L 1.859375 -0.15625 L 1.828125 -0.046875 L 1.71875 -0.015625 L 1.40625 -0.015625 L 1.3125 0 L 1.21875 -0.015625 L 1.109375 0 L 1.015625 -0.046875 Z M 0.96875 -0.15625 "/></g></g></g><g fill="#000000" fill-opacity="1"><g transform="translate(72.431373, 16.197838)"><g><path d="M 0.0625 -0.140625 L 0.125 -0.34375 L 0.171875 -0.453125 L 0.234375 -0.53125 L 0.375 -0.890625 L 0.515625 -1.15625 L 0.5625 -1.265625 L 0.59375 -1.34375 L 0.625 -1.453125 L 0.703125 -1.578125 L 0.734375 -1.671875 L 0.8125 -1.8125 L 0.890625 -1.984375 L 0.953125 -2.078125 L 0.96875 -2.171875 L 1.25 -2.796875 L 1.3125 -2.890625 L 1.53125 -3.34375 L 1.5625 -3.4375 L 1.65625 -3.53125 L 1.8125 -3.578125 L 1.984375 -3.53125 L 2.078125 -3.4375 L 2.109375 -3.34375 L 2.15625 -3.265625 L 2.234375 -3.078125 L 2.34375 -2.890625 L 2.40625 -2.703125 L 2.4375 -2.625 L 2.53125 -2.4375 L 2.5625 -2.34375 L 2.65625 -2.171875 L 2.6875 -2.0625 L 2.734375 -1.984375 L 2.78125 -1.890625 L 2.828125 -1.8125 L 2.859375 -1.703125 L 2.90625 -1.625 L 2.9375 -1.53125 L 3.03125 -1.34375 L 3.078125 -1.265625 L 3.15625 -1.078125 L 3.203125 -0.984375 L 3.234375 -0.890625 L 3.328125 -0.71875 L 3.359375 -0.609375 L 3.40625 -0.546875 L 3.4375 -0.4375 L 3.5 -0.359375 L 3.53125 -0.265625 L 3.5625 -0.140625 L 3.546875 -0.03125 L 3.453125 0 L 3.140625 0.015625 L 2.96875 0 L 2.875 0 L 2.75 -0.046875 L 2.65625 -0.125 L 2.609375 -0.21875 L 2.578125 -0.3125 L 2.46875 -0.390625 L 2.3125 -0.4375 L 1.875 -0.4375 L 1.75 -0.421875 L 1.65625 -0.4375 L 1.375 -0.4375 L 1.265625 -0.453125 L 1.140625 -0.40625 L 1.0625 -0.296875 L 0.96875 -0.125 L 0.890625 -0.046875 L 0.765625 0.015625 L 0.640625 0 L 0.1875 0 L 0.09375 -0.03125 Z M 1.625 -1.25 L 2.015625 -1.25 L 2.109375 -1.296875 L 2.109375 -1.390625 L 2.078125 -1.46875 L 2.03125 -1.578125 L 2.015625 -1.65625 L 1.953125 -1.734375 L 1.890625 -1.9375 L 1.828125 -1.984375 L 1.765625 -1.921875 L 1.71875 -1.84375 L 1.515625 -1.390625 L 1.53125 -1.28125 Z M 1.625 -1.25 "/></g></g></g><g fill="#000000" fill-opacity="1"><g transform="translate(76.094159, 16.197838)"><g><path d="M 1.859375 0.046875 L 1.765625 0.046875 L 1.671875 0.03125 L 1.5625 0.015625 L 1.453125 -0.015625 L 1.390625 -0.03125 L 1.28125 -0.078125 L 0.9375 -0.25 L 0.78125 -0.375 L 0.59375 -0.546875 L 0.390625 -0.84375 L 0.359375 -0.921875 L 0.3125 -1.015625 L 0.296875 -1.109375 L 0.25 -1.203125 L 0.203125 -1.40625 L 0.203125 -1.609375 L 0.1875 -1.765625 L 0.265625 -2.390625 L 0.5 -2.84375 L 0.5625 -2.9375 L 0.703125 -3.0625 L 0.765625 -3.140625 L 1.109375 -3.375 L 1.203125 -3.40625 L 1.28125 -3.453125 L 1.375 -3.484375 L 1.578125 -3.53125 L 1.671875 -3.5625 L 2.21875 -3.5625 L 2.46875 -3.53125 L 2.671875 -3.484375 L 2.953125 -3.34375 L 3.0625 -3.265625 L 3.328125 -3.03125 L 3.515625 -2.78125 L 3.59375 -2.578125 L 3.609375 -2.5 L 3.65625 -2.390625 L 3.625 -2.28125 L 3.53125 -2.234375 L 2.921875 -2.234375 L 2.8125 -2.28125 L 2.71875 -2.375 L 2.6875 -2.46875 L 2.609375 -2.546875 L 2.453125 -2.671875 L 2.359375 -2.703125 L 2.15625 -2.734375 L 1.84375 -2.75 L 1.671875 -2.703125 L 1.578125 -2.65625 L 1.40625 -2.53125 L 1.28125 -2.375 L 1.203125 -2.203125 L 1.171875 -2.109375 L 1.15625 -2.015625 L 1.125 -1.921875 L 1.125 -1.75 L 1.140625 -1.515625 L 1.234375 -1.234375 L 1.484375 -0.921875 L 1.578125 -0.875 L 1.859375 -0.78125 L 2.140625 -0.765625 L 2.25 -0.78125 L 2.34375 -0.8125 L 2.515625 -0.890625 L 2.703125 -1.109375 L 2.75 -1.1875 L 2.84375 -1.28125 L 2.96875 -1.34375 L 3.5 -1.328125 L 3.625 -1.28125 L 3.65625 -1.1875 L 3.640625 -1.09375 L 3.609375 -0.984375 L 3.578125 -0.890625 L 3.53125 -0.796875 L 3.390625 -0.546875 L 3.296875 -0.46875 L 3.25 -0.390625 L 3.09375 -0.265625 L 3 -0.203125 L 2.921875 -0.15625 L 2.65625 -0.03125 L 2.15625 0.0625 Z M 1.859375 0.046875 "/></g></g></g><g fill="#000000" fill-opacity="1"><g transform="translate(79.943616, 16.197838)"><g><path d="M 0.390625 -0.15625 L 0.375 -0.25 L 0.390625 -0.34375 L 0.375 -0.4375 L 0.390625 -0.5625 L 0.359375 -0.75 L 0.375 -0.953125 L 0.375 -1.0625 L 0.390625 -1.15625 L 0.375 -2.359375 L 0.359375 -2.46875 L 0.390625 -2.671875 L 0.375 -2.78125 L 0.375 -2.875 L 0.390625 -3.171875 L 0.375 -3.28125 L 0.375 -3.375 L 0.4375 -3.46875 L 0.53125 -3.53125 L 1.140625 -3.53125 L 1.234375 -3.484375 L 1.28125 -3.359375 L 1.28125 -3.265625 L 1.296875 -3.171875 L 1.28125 -2.4375 L 1.296875 -2.34375 L 1.296875 -2.234375 L 1.390625 -2.1875 L 1.515625 -2.1875 L 1.734375 -2.234375 L 1.8125 -2.28125 L 1.90625 -2.328125 L 1.984375 -2.390625 L 2.046875 -2.484375 L 2.109375 -2.546875 L 2.15625 -2.65625 L 2.203125 -2.84375 L 2.21875 -3.0625 L 2.203125 -3.375 L 2.265625 -3.484375 L 2.390625 -3.53125 L 2.53125 -3.515625 L 3 -3.53125 L 3.09375 -3.484375 L 3.140625 -3.359375 L 3.140625 -3.171875 L 3.125 -3.0625 L 3.140625 -2.953125 L 3.109375 -2.75 L 3.09375 -2.65625 L 3.046875 -2.453125 L 3 -2.359375 L 2.984375 -2.265625 L 2.921875 -2.171875 L 2.8125 -2 L 2.671875 -1.84375 L 2.578125 -1.796875 L 2.53125 -1.671875 L 2.53125 -1.5625 L 2.703125 -1.3125 L 2.859375 -1.046875 L 2.921875 -0.953125 L 2.953125 -0.875 L 3.015625 -0.78125 L 3.109375 -0.609375 L 3.1875 -0.53125 L 3.28125 -0.34375 L 3.34375 -0.265625 L 3.390625 -0.15625 L 3.375 -0.03125 L 3.28125 0.015625 L 3.171875 0 L 2.625 0 L 2.453125 -0.03125 L 2.359375 -0.109375 L 2.21875 -0.375 L 2.15625 -0.453125 L 2.109375 -0.546875 L 2.046875 -0.625 L 1.921875 -0.890625 L 1.703125 -1.234375 L 1.609375 -1.3125 L 1.46875 -1.34375 L 1.34375 -1.28125 L 1.296875 -1.1875 L 1.296875 -0.875 L 1.28125 -0.765625 L 1.296875 -0.15625 L 1.25 -0.046875 L 1.09375 0 L 0.5625 0.015625 L 0.421875 -0.046875 Z M 0.390625 -0.15625 "/></g></g></g><g fill="#000000" fill-opacity="1"><g transform="translate(83.439909, 16.197838)"><g/></g></g><g fill="#000000" fill-opacity="1"><g transform="translate(84.807149, 16.197838)"><g><path d="M 1.359375 0.046875 L 1.15625 0.015625 L 0.953125 -0.0625 L 0.859375 -0.09375 L 0.75 -0.140625 L 0.6875 -0.21875 L 0.515625 -0.328125 L 0.375 -0.46875 L 0.28125 -0.65625 L 0.25 -0.734375 L 0.234375 -0.84375 L 0.21875 -0.9375 L 0.25 -1.046875 L 0.34375 -1.09375 L 0.734375 -1.109375 L 0.828125 -1.09375 L 0.921875 -1.109375 L 1.015625 -1.0625 L 1.1875 -0.890625 L 1.265625 -0.828125 L 1.359375 -0.78125 L 1.609375 -0.75 L 1.703125 -0.765625 L 1.859375 -0.78125 L 2.03125 -0.859375 L 2.09375 -0.9375 L 2.140625 -1.0625 L 2.109375 -1.1875 L 2.046875 -1.25 L 1.859375 -1.328125 L 1.0625 -1.421875 L 0.890625 -1.484375 L 0.546875 -1.671875 L 0.359375 -1.90625 L 0.28125 -2.078125 L 0.25 -2.28125 L 0.234375 -2.4375 L 0.25 -2.6875 L 0.34375 -2.96875 L 0.515625 -3.203125 L 0.765625 -3.359375 L 0.9375 -3.46875 L 1.125 -3.53125 L 1.21875 -3.546875 L 1.3125 -3.546875 L 1.421875 -3.578125 L 1.8125 -3.5625 L 2.015625 -3.53125 L 2.296875 -3.4375 L 2.625 -3.203125 L 2.734375 -3.046875 L 2.875 -2.78125 L 2.90625 -2.59375 L 2.875 -2.515625 L 2.78125 -2.4375 L 2.6875 -2.453125 L 2.453125 -2.453125 L 2.203125 -2.4375 L 2.09375 -2.5 L 2.03125 -2.609375 L 1.84375 -2.734375 L 1.75 -2.765625 L 1.59375 -2.78125 L 1.4375 -2.78125 L 1.34375 -2.75 L 1.1875 -2.65625 L 1.125 -2.59375 L 1.09375 -2.453125 L 1.125 -2.296875 L 1.203125 -2.234375 L 1.390625 -2.140625 L 1.65625 -2.078125 L 1.796875 -2.078125 L 1.90625 -2.0625 L 2 -2.0625 L 2.109375 -2.046875 L 2.5 -1.921875 L 2.59375 -1.875 L 2.671875 -1.828125 L 2.765625 -1.75 L 2.953125 -1.515625 L 3.015625 -1.21875 L 3.03125 -1.0625 L 3 -0.8125 L 2.9375 -0.625 L 2.890625 -0.515625 L 2.84375 -0.453125 L 2.6875 -0.296875 L 2.34375 -0.09375 L 2.25 -0.046875 L 2.15625 -0.03125 L 2.0625 0 L 1.953125 0.015625 L 1.859375 0.046875 L 1.75 0.0625 Z M 1.359375 0.046875 "/></g></g></g><g fill="#000000" fill-opacity="1"><g transform="translate(88.025959, 16.197838)"><g><path d="M 1.890625 0.0625 L 1.78125 0.046875 L 1.59375 0.015625 L 1.484375 0 L 1.34375 -0.046875 L 0.953125 -0.25 L 0.78125 -0.390625 L 0.734375 -0.453125 L 0.65625 -0.515625 L 0.578125 -0.59375 L 0.53125 -0.65625 L 0.296875 -1.125 L 0.25 -1.3125 L 0.21875 -1.5 L 0.203125 -1.609375 L 0.21875 -2.015625 L 0.296875 -2.40625 L 0.375 -2.59375 L 0.53125 -2.859375 L 0.78125 -3.15625 L 0.953125 -3.28125 L 1.046875 -3.328125 L 1.109375 -3.375 L 1.5 -3.515625 L 2.03125 -3.59375 L 2.171875 -3.59375 L 2.453125 -3.53125 L 2.84375 -3.421875 L 2.921875 -3.359375 L 3.078125 -3.296875 L 3.1875 -3.21875 L 3.34375 -3.09375 L 3.484375 -2.9375 L 3.59375 -2.78125 L 3.6875 -2.59375 L 3.8125 -2.21875 L 3.84375 -2.015625 L 3.859375 -1.75 L 3.84375 -1.609375 L 3.828125 -1.5 L 3.8125 -1.40625 L 3.8125 -1.3125 L 3.765625 -1.125 L 3.6875 -0.921875 L 3.46875 -0.59375 L 3.390625 -0.515625 L 3.328125 -0.421875 L 3.1875 -0.3125 L 3.09375 -0.265625 L 3.015625 -0.203125 L 2.84375 -0.109375 L 2.46875 0.015625 L 2.171875 0.0625 Z M 2.171875 -0.828125 L 2.265625 -0.859375 L 2.34375 -0.890625 L 2.4375 -0.90625 L 2.6875 -1.078125 L 2.75 -1.15625 L 2.78125 -1.234375 L 2.84375 -1.328125 L 2.875 -1.421875 L 2.90625 -1.609375 L 2.921875 -1.90625 L 2.90625 -2 L 2.859375 -2.09375 L 2.796875 -2.296875 L 2.609375 -2.5 L 2.453125 -2.609375 L 2.359375 -2.65625 L 2.265625 -2.671875 L 2.03125 -2.703125 L 1.875 -2.6875 L 1.6875 -2.640625 L 1.625 -2.609375 L 1.375 -2.4375 L 1.25 -2.28125 L 1.21875 -2.1875 L 1.171875 -2.09375 L 1.140625 -1.90625 L 1.140625 -1.609375 L 1.171875 -1.421875 L 1.21875 -1.328125 L 1.25 -1.25 L 1.3125 -1.15625 L 1.390625 -1.078125 L 1.515625 -0.96875 L 1.59375 -0.921875 L 1.78125 -0.84375 L 1.890625 -0.828125 Z M 2.171875 -0.828125 "/></g></g></g><g fill="#000000" fill-opacity="1"><g transform="translate(92.072176, 16.197838)"><g><path d="M 0.375 -0.140625 L 0.375 -0.359375 L 0.390625 -1.40625 L 0.359375 -1.5625 L 0.375 -1.671875 L 0.375 -1.765625 L 0.390625 -1.875 L 0.375 -1.953125 L 0.375 -2.671875 L 0.390625 -2.765625 L 0.359375 -3.375 L 0.421875 -3.46875 L 0.515625 -3.515625 L 1.71875 -3.515625 L 1.8125 -3.53125 L 1.90625 -3.515625 L 2.015625 -3.53125 L 2.125 -3.515625 L 2.3125 -3.53125 L 2.421875 -3.515625 L 2.515625 -3.484375 L 2.5625 -3.375 L 2.578125 -3.28125 L 2.5625 -3.171875 L 2.578125 -3.078125 L 2.5625 -2.96875 L 2.5625 -2.875 L 2.53125 -2.78125 L 2.4375 -2.734375 L 2.34375 -2.71875 L 2.03125 -2.71875 L 1.78125 -2.734375 L 1.640625 -2.71875 L 1.484375 -2.71875 L 1.34375 -2.671875 L 1.296875 -2.578125 L 1.296875 -2.484375 L 1.28125 -2.375 L 1.28125 -2.078125 L 1.34375 -2 L 1.453125 -1.953125 L 2.21875 -1.953125 L 2.375 -1.90625 L 2.421875 -1.796875 L 2.4375 -1.703125 L 2.421875 -1.390625 L 2.4375 -1.28125 L 2.375 -1.1875 L 2.28125 -1.140625 L 1.5 -1.140625 L 1.34375 -1.078125 L 1.296875 -0.984375 L 1.28125 -0.875 L 1.296875 -0.78125 L 1.28125 -0.6875 L 1.296875 -0.46875 L 1.296875 -0.203125 L 1.234375 -0.046875 L 1.125 0 L 0.578125 0.015625 L 0.421875 -0.046875 Z M 0.375 -0.140625 "/></g></g></g><g fill="#000000" fill-opacity="1"><g transform="translate(94.821784, 16.197838)"><g><path d="M 0.96875 -0.15625 L 0.96875 -0.65625 L 0.953125 -0.953125 L 0.96875 -1.0625 L 0.953125 -1.171875 L 0.984375 -1.3125 L 0.96875 -1.46875 L 0.96875 -1.859375 L 0.984375 -2.015625 L 0.96875 -2.578125 L 0.90625 -2.671875 L 0.828125 -2.71875 L 0.375 -2.734375 L 0.25 -2.71875 L 0.140625 -2.765625 L 0.078125 -2.875 L 0.09375 -3.375 L 0.140625 -3.484375 L 0.25 -3.53125 L 1.75 -3.515625 L 1.875 -3.53125 L 2.171875 -3.53125 L 2.28125 -3.546875 L 2.375 -3.546875 L 2.46875 -3.53125 L 2.578125 -3.546875 L 2.6875 -3.5 L 2.734375 -3.390625 L 2.71875 -2.984375 L 2.734375 -2.875 L 2.6875 -2.765625 L 2.5625 -2.71875 L 2.296875 -2.734375 L 2.203125 -2.71875 L 2.015625 -2.71875 L 1.90625 -2.671875 L 1.859375 -2.578125 L 1.875 -2.46875 L 1.859375 -2.375 L 1.875 -1.375 L 1.859375 -1.15625 L 1.875 -1.0625 L 1.859375 -0.75 L 1.84375 -0.65625 L 1.859375 -0.5625 L 1.875 -0.359375 L 1.859375 -0.25 L 1.859375 -0.15625 L 1.828125 -0.046875 L 1.71875 -0.015625 L 1.40625 -0.015625 L 1.3125 0 L 1.21875 -0.015625 L 1.109375 0 L 1.015625 -0.046875 Z M 0.96875 -0.15625 "/></g></g></g><g fill="#000000" fill-opacity="1"><g transform="translate(97.64203, 16.197838)"><g><path d="M 1.234375 -0.09375 L 1.15625 -0.296875 L 1.09375 -0.484375 L 0.734375 -1.4375 L 0.71875 -1.53125 L 0.65625 -1.640625 L 0.640625 -1.734375 L 0.53125 -2.015625 L 0.515625 -2.09375 L 0.46875 -2.203125 L 0.4375 -2.296875 L 0.390625 -2.390625 L 0.296875 -2.671875 L 0.25 -2.765625 L 0.21875 -2.859375 L 0.171875 -2.953125 L 0.078125 -3.234375 L 0.046875 -3.375 L 0.078125 -3.484375 L 0.171875 -3.515625 L 0.375 -3.515625 L 0.453125 -3.53125 L 0.859375 -3.53125 L 0.984375 -3.484375 L 1.0625 -3.390625 L 1.078125 -3.28125 L 1.140625 -3.09375 L 1.21875 -2.890625 L 1.265625 -2.796875 L 1.546875 -1.6875 L 1.578125 -1.6875 L 1.640625 -1.78125 L 1.65625 -1.875 L 1.703125 -1.984375 L 1.734375 -2.078125 L 1.75 -2.171875 L 1.875 -2.453125 L 1.890625 -2.5625 L 2.03125 -2.9375 L 2.078125 -3.125 L 2.171875 -3.328125 L 2.234375 -3.421875 L 2.34375 -3.484375 L 2.4375 -3.484375 L 2.578125 -3.4375 L 2.65625 -3.328125 L 2.859375 -2.75 L 2.875 -2.65625 L 2.921875 -2.546875 L 2.9375 -2.453125 L 3.125 -1.96875 L 3.140625 -1.875 L 3.1875 -1.78125 L 3.203125 -1.703125 L 3.25 -1.6875 L 3.484375 -2.5625 L 3.5625 -2.796875 L 3.609375 -2.90625 L 3.6875 -3.203125 L 3.734375 -3.28125 L 3.765625 -3.390625 L 3.84375 -3.484375 L 3.953125 -3.53125 L 4.59375 -3.53125 L 4.75 -3.5 L 4.78125 -3.375 L 4.640625 -2.953125 L 4.59375 -2.859375 L 4.5 -2.578125 L 4.453125 -2.484375 L 4.421875 -2.390625 L 4.375 -2.296875 L 4.328125 -2.109375 L 4.28125 -2.015625 L 4.15625 -1.640625 L 4.046875 -1.40625 L 4 -1.25 L 3.96875 -1.15625 L 3.953125 -1.0625 L 3.890625 -0.96875 L 3.828125 -0.765625 L 3.75 -0.578125 L 3.6875 -0.390625 L 3.609375 -0.203125 L 3.578125 -0.109375 L 3.5 -0.015625 L 3.375 0.03125 L 3.203125 0.046875 L 3.078125 0 L 3 -0.109375 L 2.921875 -0.296875 L 2.859375 -0.484375 L 2.8125 -0.578125 L 2.734375 -0.765625 L 2.703125 -0.875 L 2.625 -1.046875 L 2.59375 -1.15625 L 2.5 -1.34375 L 2.46875 -1.421875 L 2.421875 -1.53125 L 2.375 -1.53125 L 2.359375 -1.4375 L 2.265625 -1.234375 L 2.234375 -1.15625 L 2.03125 -0.671875 L 2.015625 -0.5625 L 1.96875 -0.484375 L 1.90625 -0.28125 L 1.8125 -0.109375 L 1.734375 -0.015625 L 1.609375 0.03125 L 1.421875 0.03125 L 1.3125 0 Z M 1.234375 -0.09375 "/></g></g></g><g fill="#000000" fill-opacity="1"><g transform="translate(102.455108, 16.197838)"><g><path d="M 0.0625 -0.140625 L 0.125 -0.34375 L 0.171875 -0.453125 L 0.234375 -0.53125 L 0.375 -0.890625 L 0.515625 -1.15625 L 0.5625 -1.265625 L 0.59375 -1.34375 L 0.625 -1.453125 L 0.703125 -1.578125 L 0.734375 -1.671875 L 0.8125 -1.8125 L 0.890625 -1.984375 L 0.953125 -2.078125 L 0.96875 -2.171875 L 1.25 -2.796875 L 1.3125 -2.890625 L 1.53125 -3.34375 L 1.5625 -3.4375 L 1.65625 -3.53125 L 1.8125 -3.578125 L 1.984375 -3.53125 L 2.078125 -3.4375 L 2.109375 -3.34375 L 2.15625 -3.265625 L 2.234375 -3.078125 L 2.34375 -2.890625 L 2.40625 -2.703125 L 2.4375 -2.625 L 2.53125 -2.4375 L 2.5625 -2.34375 L 2.65625 -2.171875 L 2.6875 -2.0625 L 2.734375 -1.984375 L 2.78125 -1.890625 L 2.828125 -1.8125 L 2.859375 -1.703125 L 2.90625 -1.625 L 2.9375 -1.53125 L 3.03125 -1.34375 L 3.078125 -1.265625 L 3.15625 -1.078125 L 3.203125 -0.984375 L 3.234375 -0.890625 L 3.328125 -0.71875 L 3.359375 -0.609375 L 3.40625 -0.546875 L 3.4375 -0.4375 L 3.5 -0.359375 L 3.53125 -0.265625 L 3.5625 -0.140625 L 3.546875 -0.03125 L 3.453125 0 L 3.140625 0.015625 L 2.96875 0 L 2.875 0 L 2.75 -0.046875 L 2.65625 -0.125 L 2.609375 -0.21875 L 2.578125 -0.3125 L 2.46875 -0.390625 L 2.3125 -0.4375 L 1.875 -0.4375 L 1.75 -0.421875 L 1.65625 -0.4375 L 1.375 -0.4375 L 1.265625 -0.453125 L 1.140625 -0.40625 L 1.0625 -0.296875 L 0.96875 -0.125 L 0.890625 -0.046875 L 0.765625 0.015625 L 0.640625 0 L 0.1875 0 L 0.09375 -0.03125 Z M 1.625 -1.25 L 2.015625 -1.25 L 2.109375 -1.296875 L 2.109375 -1.390625 L 2.078125 -1.46875 L 2.03125 -1.578125 L 2.015625 -1.65625 L 1.953125 -1.734375 L 1.890625 -1.9375 L 1.828125 -1.984375 L 1.765625 -1.921875 L 1.71875 -1.84375 L 1.515625 -1.390625 L 1.53125 -1.28125 Z M 1.625 -1.25 "/></g></g></g><g fill="#000000" fill-opacity="1"><g transform="translate(106.117895, 16.197838)"><g><path d="M 0.390625 -0.15625 L 0.375 -0.5625 L 0.390625 -0.65625 L 0.359375 -0.953125 L 0.375 -1.15625 L 0.359375 -1.265625 L 0.375 -1.46875 L 0.375 -1.828125 L 0.359375 -1.96875 L 0.375 -3.375 L 0.421875 -3.484375 L 0.515625 -3.53125 L 0.625 -3.53125 L 0.71875 -3.546875 L 0.921875 -3.515625 L 1.03125 -3.53125 L 2.015625 -3.53125 L 2.421875 -3.4375 L 2.609375 -3.34375 L 2.859375 -3.15625 L 2.90625 -3.078125 L 2.96875 -3.015625 L 3.109375 -2.734375 L 3.140625 -2.625 L 3.171875 -2.4375 L 3.171875 -2.03125 L 3.109375 -1.84375 L 3.078125 -1.765625 L 3.015625 -1.671875 L 2.984375 -1.578125 L 2.921875 -1.484375 L 2.78125 -1.359375 L 2.734375 -1.25 L 2.75 -1.125 L 2.890625 -0.859375 L 2.96875 -0.78125 L 3.015625 -0.6875 L 3.078125 -0.59375 L 3.125 -0.515625 L 3.28125 -0.265625 L 3.34375 -0.140625 L 3.328125 -0.03125 L 3.109375 0 L 2.90625 0 L 2.8125 -0.015625 L 2.6875 0 L 2.515625 -0.015625 L 2.390625 -0.046875 L 2.28125 -0.125 L 2.21875 -0.21875 L 2.1875 -0.296875 L 2.109375 -0.390625 L 1.96875 -0.640625 L 1.9375 -0.734375 L 1.8125 -0.921875 L 1.71875 -1 L 1.59375 -1.046875 L 1.421875 -1.046875 L 1.3125 -0.984375 L 1.265625 -0.890625 L 1.28125 -0.578125 L 1.265625 -0.359375 L 1.28125 -0.25 L 1.28125 -0.140625 L 1.234375 -0.046875 L 1.078125 0 L 0.9375 0 L 0.828125 -0.015625 L 0.625 0 L 0.53125 0 L 0.421875 -0.046875 Z M 1.421875 -1.859375 L 1.53125 -1.859375 L 1.625 -1.84375 L 2.03125 -1.875 L 2.09375 -1.90625 L 2.15625 -1.96875 L 2.21875 -2.0625 L 2.25 -2.15625 L 2.265625 -2.296875 L 2.265625 -2.4375 L 2.171875 -2.59375 L 2.015625 -2.6875 L 1.78125 -2.71875 L 1.515625 -2.734375 L 1.421875 -2.71875 L 1.328125 -2.671875 L 1.265625 -2.578125 L 1.28125 -2.015625 L 1.328125 -1.90625 Z M 1.421875 -1.859375 "/></g></g></g><g fill="#000000" fill-opacity="1"><g transform="translate(109.614188, 16.197838)"><g><path d="M 0.359375 -0.140625 L 0.390625 -0.25 L 0.390625 -0.34375 L 0.375 -0.546875 L 0.375 -0.765625 L 0.390625 -0.859375 L 0.375 -0.953125 L 0.390625 -1.0625 L 0.375 -1.171875 L 0.390625 -1.375 L 0.375 -1.5625 L 0.390625 -1.671875 L 0.390625 -2.578125 L 0.375 -2.671875 L 0.390625 -2.765625 L 0.359375 -3.03125 L 0.390625 -3.171875 L 0.375 -3.375 L 0.421875 -3.484375 L 0.5625 -3.515625 L 1.234375 -3.53125 L 1.515625 -3.53125 L 1.625 -3.515625 L 1.84375 -3.53125 L 1.9375 -3.515625 L 2.03125 -3.53125 L 2.4375 -3.515625 L 2.546875 -3.484375 L 2.59375 -3.375 L 2.578125 -3.28125 L 2.578125 -3.171875 L 2.59375 -3.078125 L 2.59375 -2.859375 L 2.546875 -2.78125 L 2.4375 -2.71875 L 1.46875 -2.71875 L 1.3125 -2.671875 L 1.265625 -2.515625 L 1.265625 -2.359375 L 1.328125 -2.28125 L 1.421875 -2.21875 L 2.34375 -2.21875 L 2.421875 -2.171875 L 2.46875 -2.0625 L 2.484375 -1.96875 L 2.46875 -1.5625 L 2.421875 -1.46875 L 2.328125 -1.421875 L 2.234375 -1.40625 L 2.125 -1.421875 L 1.984375 -1.40625 L 1.71875 -1.421875 L 1.421875 -1.421875 L 1.328125 -1.359375 L 1.28125 -1.25 L 1.28125 -1.015625 L 1.328125 -0.859375 L 1.4375 -0.796875 L 1.65625 -0.796875 L 1.75 -0.8125 L 2.421875 -0.796875 L 2.5625 -0.75 L 2.640625 -0.640625 L 2.625 -0.546875 L 2.625 -0.140625 L 2.578125 -0.046875 L 2.46875 0 L 2.375 0.015625 L 2.0625 0 L 1.75 0.015625 L 1.671875 0 L 0.53125 0 L 0.421875 -0.046875 Z M 0.359375 -0.140625 "/></g></g></g><g fill="#000000" fill-opacity="1"><g transform="translate(112.505065, 16.197838)"><g/></g></g><g fill="#000000" fill-opacity="1"><g transform="translate(113.872306, 16.197838)"><g><path d="M 1.546875 0.015625 L 1.34375 0 L 1.25 0.015625 L 0.625 0 L 0.53125 0.015625 L 0.421875 -0.046875 L 0.375 -0.203125 L 0.375 -3.375 L 0.421875 -3.484375 L 0.53125 -3.515625 L 0.625 -3.515625 L 0.71875 -3.53125 L 1.875 -3.515625 L 2.171875 -3.484375 L 2.28125 -3.453125 L 2.359375 -3.40625 L 2.46875 -3.390625 L 2.5625 -3.34375 L 2.8125 -3.171875 L 3.078125 -2.859375 L 3.25 -2.59375 L 3.296875 -2.5 L 3.359375 -2.3125 L 3.4375 -1.90625 L 3.4375 -1.765625 L 3.421875 -1.609375 L 3.421875 -1.5 L 3.40625 -1.390625 L 3.375 -1.3125 L 3.359375 -1.203125 L 3.328125 -1.109375 L 3.25 -0.90625 L 3.1875 -0.828125 L 3.140625 -0.734375 L 2.890625 -0.40625 L 2.546875 -0.1875 L 2.3125 -0.078125 L 2.109375 -0.046875 L 1.96875 0 L 1.859375 0 L 1.703125 0.015625 Z M 1.546875 -0.8125 L 1.6875 -0.8125 L 1.90625 -0.84375 L 2.046875 -0.890625 L 2.21875 -1 L 2.40625 -1.21875 L 2.5 -1.390625 L 2.546875 -1.75 L 2.46875 -2.203125 L 2.421875 -2.28125 L 2.375 -2.375 L 2.296875 -2.46875 L 2.140625 -2.59375 L 2.046875 -2.640625 L 1.859375 -2.6875 L 1.703125 -2.703125 L 1.5 -2.703125 L 1.34375 -2.671875 L 1.28125 -2.546875 L 1.28125 -1.765625 L 1.265625 -1.515625 L 1.28125 -1.265625 L 1.28125 -0.96875 L 1.328125 -0.875 L 1.4375 -0.828125 Z M 1.546875 -0.8125 "/></g></g></g><g fill="#000000" fill-opacity="1"><g transform="translate(117.540135, 16.197838)"><g><path d="M 0.359375 -0.140625 L 0.390625 -0.25 L 0.390625 -0.34375 L 0.375 -0.546875 L 0.375 -0.765625 L 0.390625 -0.859375 L 0.375 -0.953125 L 0.390625 -1.0625 L 0.375 -1.171875 L 0.390625 -1.375 L 0.375 -1.5625 L 0.390625 -1.671875 L 0.390625 -2.578125 L 0.375 -2.671875 L 0.390625 -2.765625 L 0.359375 -3.03125 L 0.390625 -3.171875 L 0.375 -3.375 L 0.421875 -3.484375 L 0.5625 -3.515625 L 1.234375 -3.53125 L 1.515625 -3.53125 L 1.625 -3.515625 L 1.84375 -3.53125 L 1.9375 -3.515625 L 2.03125 -3.53125 L 2.4375 -3.515625 L 2.546875 -3.484375 L 2.59375 -3.375 L 2.578125 -3.28125 L 2.578125 -3.171875 L 2.59375 -3.078125 L 2.59375 -2.859375 L 2.546875 -2.78125 L 2.4375 -2.71875 L 1.46875 -2.71875 L 1.3125 -2.671875 L 1.265625 -2.515625 L 1.265625 -2.359375 L 1.328125 -2.28125 L 1.421875 -2.21875 L 2.34375 -2.21875 L 2.421875 -2.171875 L 2.46875 -2.0625 L 2.484375 -1.96875 L 2.46875 -1.5625 L 2.421875 -1.46875 L 2.328125 -1.421875 L 2.234375 -1.40625 L 2.125 -1.421875 L 1.984375 -1.40625 L 1.71875 -1.421875 L 1.421875 -1.421875 L 1.328125 -1.359375 L 1.28125 -1.25 L 1.28125 -1.015625 L 1.328125 -0.859375 L 1.4375 -0.796875 L 1.65625 -0.796875 L 1.75 -0.8125 L 2.421875 -0.796875 L 2.5625 -0.75 L 2.640625 -0.640625 L 2.625 -0.546875 L 2.625 -0.140625 L 2.578125 -0.046875 L 2.46875 0 L 2.375 0.015625 L 2.0625 0 L 1.75 0.015625 L 1.671875 0 L 0.53125 0 L 0.421875 -0.046875 Z M 0.359375 -0.140625 "/></g></g></g><g fill="#000000" fill-opacity="1"><g transform="translate(120.431012, 16.197838)"><g><path d="M 1.421875 -0.09375 L 1.28125 -0.375 L 1.265625 -0.46875 L 1.21875 -0.546875 L 1.078125 -0.84375 L 1.046875 -0.9375 L 0.96875 -1.125 L 0.9375 -1.203125 L 0.609375 -1.953125 L 0.5625 -2.03125 L 0.40625 -2.40625 L 0.265625 -2.6875 L 0.21875 -2.796875 L 0.1875 -2.875 L 0.140625 -2.96875 L 0.0625 -3.171875 L 0.015625 -3.25 L 0 -3.375 L 0.015625 -3.484375 L 0.109375 -3.53125 L 0.40625 -3.53125 L 0.6875 -3.515625 L 0.796875 -3.484375 L 0.890625 -3.375 L 0.921875 -3.296875 L 1.015625 -3.109375 L 1.03125 -3.015625 L 1.203125 -2.65625 L 1.21875 -2.546875 L 1.265625 -2.46875 L 1.3125 -2.375 L 1.375 -2.1875 L 1.421875 -2.09375 L 1.453125 -2.015625 L 1.484375 -1.90625 L 1.53125 -1.8125 L 1.59375 -1.625 L 1.640625 -1.53125 L 1.703125 -1.546875 L 1.75 -1.640625 L 1.78125 -1.71875 L 1.828125 -1.828125 L 2.4375 -3.296875 L 2.453125 -3.390625 L 2.546875 -3.484375 L 2.671875 -3.53125 L 3.265625 -3.53125 L 3.34375 -3.5 L 3.375 -3.375 L 3.328125 -3.25 L 3.3125 -3.171875 L 3.25 -3.0625 L 3.21875 -2.96875 L 3.171875 -2.875 L 3.140625 -2.796875 L 3.0625 -2.59375 L 3 -2.515625 L 2.96875 -2.421875 L 2.90625 -2.328125 L 2.875 -2.234375 L 2.84375 -2.15625 L 2.796875 -2.046875 L 2.734375 -1.859375 L 2.640625 -1.671875 L 2.578125 -1.484375 L 2.265625 -0.828125 L 2.234375 -0.734375 L 2.15625 -0.5625 L 2.0625 -0.375 L 1.984375 -0.1875 L 1.953125 -0.078125 L 1.859375 0 L 1.71875 0.0625 L 1.625 0.046875 L 1.5 0 Z M 1.421875 -0.09375 "/></g></g></g><g fill="#000000" fill-opacity="1"><g transform="translate(123.831449, 16.197838)"><g><path d="M 0.359375 -0.140625 L 0.390625 -0.25 L 0.390625 -0.34375 L 0.375 -0.546875 L 0.375 -0.765625 L 0.390625 -0.859375 L 0.375 -0.953125 L 0.390625 -1.0625 L 0.375 -1.171875 L 0.390625 -1.375 L 0.375 -1.5625 L 0.390625 -1.671875 L 0.390625 -2.578125 L 0.375 -2.671875 L 0.390625 -2.765625 L 0.359375 -3.03125 L 0.390625 -3.171875 L 0.375 -3.375 L 0.421875 -3.484375 L 0.5625 -3.515625 L 1.234375 -3.53125 L 1.515625 -3.53125 L 1.625 -3.515625 L 1.84375 -3.53125 L 1.9375 -3.515625 L 2.03125 -3.53125 L 2.4375 -3.515625 L 2.546875 -3.484375 L 2.59375 -3.375 L 2.578125 -3.28125 L 2.578125 -3.171875 L 2.59375 -3.078125 L 2.59375 -2.859375 L 2.546875 -2.78125 L 2.4375 -2.71875 L 1.46875 -2.71875 L 1.3125 -2.671875 L 1.265625 -2.515625 L 1.265625 -2.359375 L 1.328125 -2.28125 L 1.421875 -2.21875 L 2.34375 -2.21875 L 2.421875 -2.171875 L 2.46875 -2.0625 L 2.484375 -1.96875 L 2.46875 -1.5625 L 2.421875 -1.46875 L 2.328125 -1.421875 L 2.234375 -1.40625 L 2.125 -1.421875 L 1.984375 -1.40625 L 1.71875 -1.421875 L 1.421875 -1.421875 L 1.328125 -1.359375 L 1.28125 -1.25 L 1.28125 -1.015625 L 1.328125 -0.859375 L 1.4375 -0.796875 L 1.65625 -0.796875 L 1.75 -0.8125 L 2.421875 -0.796875 L 2.5625 -0.75 L 2.640625 -0.640625 L 2.625 -0.546875 L 2.625 -0.140625 L 2.578125 -0.046875 L 2.46875 0 L 2.375 0.015625 L 2.0625 0 L 1.75 0.015625 L 1.671875 0 L 0.53125 0 L 0.421875 -0.046875 Z M 0.359375 -0.140625 "/></g></g></g><g fill="#000000" fill-opacity="1"><g transform="translate(126.722326, 16.197838)"><g><path d="M 0.375 -0.140625 L 0.375 -0.25 L 0.390625 -0.34375 L 0.375 -0.453125 L 0.390625 -1.0625 L 0.375 -1.15625 L 0.375 -1.359375 L 0.390625 -1.453125 L 0.375 -1.65625 L 0.390625 -1.75 L 0.375 -1.96875 L 0.390625 -2.0625 L 0.375 -2.171875 L 0.390625 -2.265625 L 0.375 -2.359375 L 0.390625 -2.46875 L 0.375 -2.5625 L 0.390625 -2.671875 L 0.390625 -2.765625 L 0.375 -2.875 L 0.390625 -2.984375 L 0.390625 -3.078125 L 0.359375 -3.34375 L 0.421875 -3.46875 L 0.578125 -3.53125 L 1.09375 -3.53125 L 1.234375 -3.484375 L 1.28125 -3.328125 L 1.296875 -3.078125 L 1.28125 -2.96875 L 1.296875 -2.1875 L 1.28125 -2.078125 L 1.296875 -1.96875 L 1.28125 -1.828125 L 1.28125 -1.25 L 1.296875 -1.15625 L 1.296875 -0.96875 L 1.328125 -0.859375 L 1.421875 -0.8125 L 2.3125 -0.796875 L 2.421875 -0.8125 L 2.515625 -0.765625 L 2.578125 -0.65625 L 2.5625 -0.5625 L 2.578125 -0.453125 L 2.5625 -0.359375 L 2.5625 -0.140625 L 2.515625 -0.0625 L 2.375 0 L 0.578125 0 L 0.421875 -0.0625 Z M 0.375 -0.140625 "/></g></g></g><g fill="#000000" fill-opacity="1"><g transform="translate(129.436619, 16.197838)"><g><path d="M 1.890625 0.0625 L 1.78125 0.046875 L 1.59375 0.015625 L 1.484375 0 L 1.34375 -0.046875 L 0.953125 -0.25 L 0.78125 -0.390625 L 0.734375 -0.453125 L 0.65625 -0.515625 L 0.578125 -0.59375 L 0.53125 -0.65625 L 0.296875 -1.125 L 0.25 -1.3125 L 0.21875 -1.5 L 0.203125 -1.609375 L 0.21875 -2.015625 L 0.296875 -2.40625 L 0.375 -2.59375 L 0.53125 -2.859375 L 0.78125 -3.15625 L 0.953125 -3.28125 L 1.046875 -3.328125 L 1.109375 -3.375 L 1.5 -3.515625 L 2.03125 -3.59375 L 2.171875 -3.59375 L 2.453125 -3.53125 L 2.84375 -3.421875 L 2.921875 -3.359375 L 3.078125 -3.296875 L 3.1875 -3.21875 L 3.34375 -3.09375 L 3.484375 -2.9375 L 3.59375 -2.78125 L 3.6875 -2.59375 L 3.8125 -2.21875 L 3.84375 -2.015625 L 3.859375 -1.75 L 3.84375 -1.609375 L 3.828125 -1.5 L 3.8125 -1.40625 L 3.8125 -1.3125 L 3.765625 -1.125 L 3.6875 -0.921875 L 3.46875 -0.59375 L 3.390625 -0.515625 L 3.328125 -0.421875 L 3.1875 -0.3125 L 3.09375 -0.265625 L 3.015625 -0.203125 L 2.84375 -0.109375 L 2.46875 0.015625 L 2.171875 0.0625 Z M 2.171875 -0.828125 L 2.265625 -0.859375 L 2.34375 -0.890625 L 2.4375 -0.90625 L 2.6875 -1.078125 L 2.75 -1.15625 L 2.78125 -1.234375 L 2.84375 -1.328125 L 2.875 -1.421875 L 2.90625 -1.609375 L 2.921875 -1.90625 L 2.90625 -2 L 2.859375 -2.09375 L 2.796875 -2.296875 L 2.609375 -2.5 L 2.453125 -2.609375 L 2.359375 -2.65625 L 2.265625 -2.671875 L 2.03125 -2.703125 L 1.875 -2.6875 L 1.6875 -2.640625 L 1.625 -2.609375 L 1.375 -2.4375 L 1.25 -2.28125 L 1.21875 -2.1875 L 1.171875 -2.09375 L 1.140625 -1.90625 L 1.140625 -1.609375 L 1.171875 -1.421875 L 1.21875 -1.328125 L 1.25 -1.25 L 1.3125 -1.15625 L 1.390625 -1.078125 L 1.515625 -0.96875 L 1.59375 -0.921875 L 1.78125 -0.84375 L 1.890625 -0.828125 Z M 2.171875 -0.828125 "/></g></g></g><g fill="#000000" fill-opacity="1"><g transform="translate(133.482836, 16.197838)"><g><path d="M 0.375 -0.15625 L 0.375 -0.25 L 0.390625 -0.34375 L 0.359375 -0.4375 L 0.390625 -0.546875 L 0.375 -0.859375 L 0.390625 -1.0625 L 0.375 -1.15625 L 0.375 -1.375 L 0.390625 -1.46875 L 0.375 -1.625 L 0.390625 -1.75 L 0.375 -1.96875 L 0.390625 -2.078125 L 0.375 -2.171875 L 0.390625 -2.265625 L 0.390625 -2.78125 L 0.375 -2.890625 L 0.375 -2.984375 L 0.390625 -3.078125 L 0.390625 -3.390625 L 0.4375 -3.484375 L 0.578125 -3.53125 L 2.09375 -3.515625 L 2.1875 -3.5 L 2.28125 -3.46875 L 2.390625 -3.4375 L 2.5625 -3.34375 L 2.71875 -3.25 L 2.8125 -3.171875 L 2.859375 -3.09375 L 2.921875 -3.015625 L 3 -2.9375 L 3.09375 -2.75 L 3.1875 -2.359375 L 3.171875 -2.0625 L 3.171875 -1.96875 L 3.125 -1.765625 L 3.09375 -1.671875 L 3.046875 -1.578125 L 2.875 -1.34375 L 2.734375 -1.203125 L 2.65625 -1.140625 L 2.484375 -1.03125 L 2.1875 -0.9375 L 1.984375 -0.90625 L 1.71875 -0.890625 L 1.5625 -0.90625 L 1.453125 -0.890625 L 1.3125 -0.84375 L 1.28125 -0.765625 L 1.28125 -0.65625 L 1.296875 -0.546875 L 1.28125 -0.453125 L 1.28125 -0.15625 L 1.234375 -0.046875 L 1.140625 0 L 0.625 0 L 0.515625 -0.015625 L 0.40625 -0.046875 Z M 1.4375 -1.71875 L 1.5625 -1.703125 L 1.96875 -1.734375 L 2.046875 -1.78125 L 2.140625 -1.84375 L 2.25 -1.984375 L 2.3125 -2.203125 L 2.265625 -2.453125 L 2.203125 -2.53125 L 2.125 -2.609375 L 2.046875 -2.671875 L 1.96875 -2.703125 L 1.5625 -2.734375 L 1.4375 -2.71875 L 1.34375 -2.6875 L 1.28125 -2.5625 L 1.28125 -1.875 L 1.34375 -1.765625 Z M 1.4375 -1.71875 "/></g></g></g><g fill="#000000" fill-opacity="1"><g transform="translate(136.80255, 16.197838)"><g><path d="M 0.359375 -0.140625 L 0.390625 -0.25 L 0.390625 -0.34375 L 0.375 -0.546875 L 0.375 -0.765625 L 0.390625 -0.859375 L 0.375 -0.953125 L 0.390625 -1.0625 L 0.375 -1.171875 L 0.390625 -1.375 L 0.375 -1.5625 L 0.390625 -1.671875 L 0.390625 -2.578125 L 0.375 -2.671875 L 0.390625 -2.765625 L 0.359375 -3.03125 L 0.390625 -3.171875 L 0.375 -3.375 L 0.421875 -3.484375 L 0.5625 -3.515625 L 1.234375 -3.53125 L 1.515625 -3.53125 L 1.625 -3.515625 L 1.84375 -3.53125 L 1.9375 -3.515625 L 2.03125 -3.53125 L 2.4375 -3.515625 L 2.546875 -3.484375 L 2.59375 -3.375 L 2.578125 -3.28125 L 2.578125 -3.171875 L 2.59375 -3.078125 L 2.59375 -2.859375 L 2.546875 -2.78125 L 2.4375 -2.71875 L 1.46875 -2.71875 L 1.3125 -2.671875 L 1.265625 -2.515625 L 1.265625 -2.359375 L 1.328125 -2.28125 L 1.421875 -2.21875 L 2.34375 -2.21875 L 2.421875 -2.171875 L 2.46875 -2.0625 L 2.484375 -1.96875 L 2.46875 -1.5625 L 2.421875 -1.46875 L 2.328125 -1.421875 L 2.234375 -1.40625 L 2.125 -1.421875 L 1.984375 -1.40625 L 1.71875 -1.421875 L 1.421875 -1.421875 L 1.328125 -1.359375 L 1.28125 -1.25 L 1.28125 -1.015625 L 1.328125 -0.859375 L 1.4375 -0.796875 L 1.65625 -0.796875 L 1.75 -0.8125 L 2.421875 -0.796875 L 2.5625 -0.75 L 2.640625 -0.640625 L 2.625 -0.546875 L 2.625 -0.140625 L 2.578125 -0.046875 L 2.46875 0 L 2.375 0.015625 L 2.0625 0 L 1.75 0.015625 L 1.671875 0 L 0.53125 0 L 0.421875 -0.046875 Z M 0.359375 -0.140625 "/></g></g></g><g fill="#000000" fill-opacity="1"><g transform="translate(139.693428, 16.197838)"><g><path d="M 0.390625 -0.15625 L 0.375 -0.5625 L 0.390625 -0.65625 L 0.359375 -0.953125 L 0.375 -1.15625 L 0.359375 -1.265625 L 0.375 -1.46875 L 0.375 -1.828125 L 0.359375 -1.96875 L 0.375 -3.375 L 0.421875 -3.484375 L 0.515625 -3.53125 L 0.625 -3.53125 L 0.71875 -3.546875 L 0.921875 -3.515625 L 1.03125 -3.53125 L 2.015625 -3.53125 L 2.421875 -3.4375 L 2.609375 -3.34375 L 2.859375 -3.15625 L 2.90625 -3.078125 L 2.96875 -3.015625 L 3.109375 -2.734375 L 3.140625 -2.625 L 3.171875 -2.4375 L 3.171875 -2.03125 L 3.109375 -1.84375 L 3.078125 -1.765625 L 3.015625 -1.671875 L 2.984375 -1.578125 L 2.921875 -1.484375 L 2.78125 -1.359375 L 2.734375 -1.25 L 2.75 -1.125 L 2.890625 -0.859375 L 2.96875 -0.78125 L 3.015625 -0.6875 L 3.078125 -0.59375 L 3.125 -0.515625 L 3.28125 -0.265625 L 3.34375 -0.140625 L 3.328125 -0.03125 L 3.109375 0 L 2.90625 0 L 2.8125 -0.015625 L 2.6875 0 L 2.515625 -0.015625 L 2.390625 -0.046875 L 2.28125 -0.125 L 2.21875 -0.21875 L 2.1875 -0.296875 L 2.109375 -0.390625 L 1.96875 -0.640625 L 1.9375 -0.734375 L 1.8125 -0.921875 L 1.71875 -1 L 1.59375 -1.046875 L 1.421875 -1.046875 L 1.3125 -0.984375 L 1.265625 -0.890625 L 1.28125 -0.578125 L 1.265625 -0.359375 L 1.28125 -0.25 L 1.28125 -0.140625 L 1.234375 -0.046875 L 1.078125 0 L 0.9375 0 L 0.828125 -0.015625 L 0.625 0 L 0.53125 0 L 0.421875 -0.046875 Z M 1.421875 -1.859375 L 1.53125 -1.859375 L 1.625 -1.84375 L 2.03125 -1.875 L 2.09375 -1.90625 L 2.15625 -1.96875 L 2.21875 -2.0625 L 2.25 -2.15625 L 2.265625 -2.296875 L 2.265625 -2.4375 L 2.171875 -2.59375 L 2.015625 -2.6875 L 1.78125 -2.71875 L 1.515625 -2.734375 L 1.421875 -2.71875 L 1.328125 -2.671875 L 1.265625 -2.578125 L 1.28125 -2.015625 L 1.328125 -1.90625 Z M 1.421875 -1.859375 "/></g></g></g></svg>