<svg xmlns="http://www.w3.org/2000/svg" xmlns:xlink="http://www.w3.org/1999/xlink" width="250" zoomAndPan="magnify" viewBox="0 0 187.5 37.5" height="50" preserveAspectRatio="xMidYMid meet" version="1.0"><defs><g/><clipPath id="e256f70134"><path d="M 0.988281 0 L 186.019531 0 L 186.019531 37.007812 L 0.988281 37.007812 Z M 0.988281 0 " clip-rule="nonzero"/></clipPath><clipPath id="22f4ec2c4c"><path d="M 1 0 L 61.675781 0 L 61.675781 37.007812 L 1 37.007812 Z M 1 0 " clip-rule="nonzero"/></clipPath></defs><g clip-path="url(#e256f70134)"><path fill="#ffffff" d="M 0.988281 0 L 186.019531 0 L 186.019531 37.007812 L 0.988281 37.007812 Z M 0.988281 0 " fill-opacity="1" fill-rule="nonzero"/><path fill="#ffffff" d="M 0.988281 0 L 186.019531 0 L 186.019531 37.007812 L 0.988281 37.007812 Z M 0.988281 0 " fill-opacity="1" fill-rule="nonzero"/></g><g clip-path="url(#22f4ec2c4c)"><path fill="#000000" d="M 20.160156 0.417969 C 19.550781 0.417969 18.242188 0.347656 16.226562 0.210938 C 14.304688 0.0703125 12.796875 0 11.695312 0 L 10.464844 0 L 10.464844 0.628906 C 12.550781 0.722656 14.371094 1.257812 15.929688 2.238281 C 17.484375 3.21875 18.707031 4.605469 19.597656 6.398438 L 7.9375 28.988281 C 5.859375 33.007812 3.550781 35.683594 1.019531 37.007812 L 12.296875 37.007812 C 10.421875 36.253906 9.484375 35.015625 9.484375 33.289062 C 9.484375 32.261719 9.730469 31.261719 10.21875 30.28125 C 10.546875 29.628906 10.722656 29.289062 10.746094 29.265625 L 10.921875 28.8125 L 14.261719 22.308594 L 27.503906 22.308594 L 30.628906 28.8125 C 31.800781 31.214844 32.386719 33.007812 32.386719 34.195312 C 32.386719 35.71875 31.589844 36.652344 30 37.007812 L 37.773438 37.007812 Z M 15.628906 19.6875 L 21.144531 9.054688 L 26.238281 19.6875 Z M 61.648438 37.007812 L 54.59375 37.007812 L 47.382812 22.027344 L 36.464844 22.027344 L 38.53125 26.296875 C 41.371094 32.132812 44.394531 35.703125 47.597656 37.007812 L 40.582031 37.007812 L 33.371094 22.027344 L 31.941406 19.058594 L 22.972656 0.417969 L 26.414062 0.417969 C 26.878906 1.632812 27.535156 3.15625 28.378906 5 C 29.316406 6.980469 29.84375 8.160156 29.960938 8.53125 C 30.078125 8.742188 30.183594 8.984375 30.277344 9.265625 L 35.023438 19.054688 L 45.953125 19.054688 L 36.882812 0.210938 L 40.324219 0.210938 C 40.792969 1.421875 41.449219 2.949219 42.289062 4.789062 C 43.226562 6.773438 43.753906 7.949219 43.871094 8.320312 C 43.988281 8.53125 44.09375 8.773438 44.1875 9.054688 L 49.035156 19.054688 L 50.476562 22.027344 L 52.441406 26.082031 C 55.324219 32.003906 58.390625 35.59375 61.644531 36.851562 L 61.644531 37.007812 Z M 61.648438 37.007812 " fill-opacity="1" fill-rule="nonzero"/></g><g fill="#000000" fill-opacity="1"><g transform="translate(60.88791, 20.488125)"><g><path d="M 0.4375 -0.171875 L 0.421875 -1.953125 L 0.4375 -2.09375 L 0.421875 -2.203125 L 0.4375 -2.328125 L 0.453125 -2.421875 L 0.4375 -2.5625 L 0.453125 -2.671875 L 0.4375 -2.796875 L 0.421875 -2.90625 L 0.453125 -3.5625 L 0.4375 -3.75 L 0.453125 -3.984375 L 0.484375 -4.09375 L 0.625 -4.15625 L 0.78125 -4.15625 L 0.90625 -4.171875 L 1.21875 -4.171875 L 1.328125 -4.15625 L 1.546875 -4.15625 L 1.734375 -4.171875 L 1.859375 -4.15625 L 2.03125 -4.171875 L 2.140625 -4.15625 L 2.375 -4.171875 L 2.5 -4.15625 L 2.859375 -4.15625 L 2.96875 -4.09375 L 3.03125 -3.921875 L 3.03125 -3.390625 L 2.96875 -3.265625 L 2.859375 -3.203125 L 2.40625 -3.21875 L 2.28125 -3.203125 L 2.15625 -3.21875 L 2.046875 -3.203125 L 1.875 -3.21875 L 1.6875 -3.21875 L 1.578125 -3.140625 L 1.515625 -3.03125 L 1.53125 -2.75 L 1.515625 -2.640625 L 1.515625 -2.46875 L 1.578125 -2.34375 L 1.703125 -2.296875 L 1.828125 -2.3125 L 2.0625 -2.28125 L 2.375 -2.296875 L 2.671875 -2.296875 L 2.796875 -2.25 L 2.859375 -2.125 L 2.859375 -1.59375 L 2.796875 -1.40625 L 2.671875 -1.34375 L 2.1875 -1.34375 L 2.078125 -1.359375 L 1.953125 -1.328125 L 1.828125 -1.359375 L 1.703125 -1.34375 L 1.578125 -1.296875 L 1.53125 -1.171875 L 1.53125 -0.546875 L 1.515625 -0.421875 L 1.53125 -0.234375 L 1.46875 -0.0625 L 1.34375 0 L 1.046875 0.015625 L 0.625 0 L 0.5 -0.0625 Z M 0.4375 -0.171875 "/></g></g></g><g fill="#000000" fill-opacity="1"><g transform="translate(64.133137, 20.488125)"><g><path d="M 1.75 0.046875 L 1.640625 0.015625 L 1.515625 0.015625 L 1.421875 -0.03125 L 1.28125 -0.078125 L 1.171875 -0.125 L 1.078125 -0.203125 L 0.875 -0.3125 L 0.796875 -0.390625 L 0.640625 -0.59375 L 0.53125 -0.796875 L 0.484375 -0.90625 L 0.46875 -1.015625 L 0.4375 -1.140625 L 0.4375 -1.265625 L 0.421875 -1.4375 L 0.421875 -1.859375 L 0.40625 -2.09375 L 0.421875 -2.21875 L 0.40625 -2.328125 L 0.421875 -2.453125 L 0.40625 -2.578125 L 0.421875 -2.6875 L 0.40625 -3.046875 L 0.421875 -3.28125 L 0.390625 -3.53125 L 0.421875 -3.625 L 0.421875 -3.984375 L 0.46875 -4.109375 L 0.59375 -4.171875 L 1.21875 -4.15625 L 1.359375 -4.109375 L 1.421875 -4 L 1.421875 -3.875 L 1.40625 -3.6875 L 1.40625 -3.578125 L 1.421875 -3.40625 L 1.421875 -2.921875 L 1.40625 -2.828125 L 1.40625 -2.453125 L 1.421875 -2.328125 L 1.4375 -1.28125 L 1.46875 -1.15625 L 1.546875 -1.078125 L 1.640625 -1 L 1.765625 -0.9375 L 1.875 -0.90625 L 2.078125 -0.890625 L 2.234375 -0.90625 L 2.46875 -0.984375 L 2.5625 -1.078125 L 2.625 -1.15625 L 2.671875 -1.265625 L 2.703125 -1.453125 L 2.6875 -1.765625 L 2.703125 -1.875 L 2.703125 -2.21875 L 2.6875 -2.328125 L 2.703125 -2.796875 L 2.6875 -2.921875 L 2.703125 -3.046875 L 2.6875 -3.28125 L 2.703125 -3.40625 L 2.703125 -3.984375 L 2.75 -4.125 L 2.890625 -4.171875 L 3.453125 -4.171875 L 3.640625 -4.109375 L 3.6875 -3.984375 L 3.703125 -3.875 L 3.703125 -3.40625 L 3.71875 -3.28125 L 3.703125 -3.171875 L 3.703125 -3.03125 L 3.6875 -2.84375 L 3.703125 -2.6875 L 3.6875 -2.5625 L 3.6875 -2.453125 L 3.71875 -2.328125 L 3.71875 -2.21875 L 3.6875 -2.09375 L 3.703125 -1.609375 L 3.671875 -1.015625 L 3.625 -0.90625 L 3.5625 -0.796875 L 3.53125 -0.671875 L 3.453125 -0.59375 L 3.390625 -0.484375 L 3.125 -0.25 L 3.03125 -0.171875 L 2.921875 -0.125 L 2.828125 -0.078125 L 2.703125 -0.046875 L 2.578125 0 L 2.34375 0.0625 L 2.046875 0.078125 Z M 1.75 0.046875 "/></g></g></g><g fill="#000000" fill-opacity="1"><g transform="translate(68.241779, 20.488125)"><g><path d="M 0.453125 -0.171875 L 0.4375 -0.296875 L 0.453125 -0.40625 L 0.453125 -1.25 L 0.4375 -1.359375 L 0.4375 -1.59375 L 0.453125 -1.71875 L 0.4375 -1.953125 L 0.453125 -2.078125 L 0.4375 -2.328125 L 0.453125 -2.4375 L 0.4375 -2.5625 L 0.453125 -2.671875 L 0.4375 -2.796875 L 0.453125 -2.90625 L 0.453125 -3.03125 L 0.46875 -3.15625 L 0.453125 -3.265625 L 0.4375 -3.390625 L 0.453125 -3.515625 L 0.46875 -3.625 L 0.421875 -3.9375 L 0.5 -4.09375 L 0.671875 -4.15625 L 1.296875 -4.171875 L 1.453125 -4.109375 L 1.515625 -3.921875 L 1.53125 -3.625 L 1.515625 -3.5 L 1.53125 -2.578125 L 1.515625 -2.453125 L 1.53125 -2.3125 L 1.515625 -2.15625 L 1.515625 -1.84375 L 1.5 -1.71875 L 1.515625 -1.609375 L 1.515625 -1.46875 L 1.53125 -1.359375 L 1.53125 -1.140625 L 1.5625 -1.015625 L 1.6875 -0.953125 L 2.734375 -0.953125 L 2.859375 -0.96875 L 2.953125 -0.90625 L 3.03125 -0.78125 L 3.015625 -0.65625 L 3.03125 -0.53125 L 3.03125 -0.421875 L 3.015625 -0.296875 L 3.03125 -0.171875 L 2.96875 -0.0625 L 2.796875 0 L 0.6875 0 L 0.5 -0.0625 Z M 0.453125 -0.171875 "/></g></g></g><g fill="#000000" fill-opacity="1"><g transform="translate(71.445325, 20.488125)"><g><path d="M 0.453125 -0.171875 L 0.4375 -0.296875 L 0.453125 -0.40625 L 0.453125 -1.25 L 0.4375 -1.359375 L 0.4375 -1.59375 L 0.453125 -1.71875 L 0.4375 -1.953125 L 0.453125 -2.078125 L 0.4375 -2.328125 L 0.453125 -2.4375 L 0.4375 -2.5625 L 0.453125 -2.671875 L 0.4375 -2.796875 L 0.453125 -2.90625 L 0.453125 -3.03125 L 0.46875 -3.15625 L 0.453125 -3.265625 L 0.4375 -3.390625 L 0.453125 -3.515625 L 0.46875 -3.625 L 0.421875 -3.9375 L 0.5 -4.09375 L 0.671875 -4.15625 L 1.296875 -4.171875 L 1.453125 -4.109375 L 1.515625 -3.921875 L 1.53125 -3.625 L 1.515625 -3.5 L 1.53125 -2.578125 L 1.515625 -2.453125 L 1.53125 -2.3125 L 1.515625 -2.15625 L 1.515625 -1.84375 L 1.5 -1.71875 L 1.515625 -1.609375 L 1.515625 -1.46875 L 1.53125 -1.359375 L 1.53125 -1.140625 L 1.5625 -1.015625 L 1.6875 -0.953125 L 2.734375 -0.953125 L 2.859375 -0.96875 L 2.953125 -0.90625 L 3.03125 -0.78125 L 3.015625 -0.65625 L 3.03125 -0.53125 L 3.03125 -0.421875 L 3.015625 -0.296875 L 3.03125 -0.171875 L 2.96875 -0.0625 L 2.796875 0 L 0.6875 0 L 0.5 -0.0625 Z M 0.453125 -0.171875 "/></g></g></g><g fill="#000000" fill-opacity="1"><g transform="translate(74.648872, 20.488125)"><g/></g></g><g fill="#000000" fill-opacity="1"><g transform="translate(76.262558, 20.488125)"><g><path d="M 1.59375 0.046875 L 1.359375 0.015625 L 1.125 -0.078125 L 1 -0.109375 L 0.890625 -0.15625 L 0.8125 -0.25 L 0.59375 -0.375 L 0.53125 -0.46875 L 0.4375 -0.546875 L 0.328125 -0.765625 L 0.296875 -0.875 L 0.265625 -1 L 0.25 -1.109375 L 0.296875 -1.234375 L 0.40625 -1.28125 L 0.859375 -1.3125 L 0.96875 -1.296875 L 1.078125 -1.296875 L 1.203125 -1.25 L 1.40625 -1.046875 L 1.5 -0.96875 L 1.59375 -0.921875 L 1.90625 -0.890625 L 2.015625 -0.90625 L 2.203125 -0.921875 L 2.40625 -1.015625 L 2.46875 -1.09375 L 2.53125 -1.25 L 2.484375 -1.40625 L 2.40625 -1.46875 L 2.203125 -1.578125 L 1.265625 -1.671875 L 1.046875 -1.75 L 0.640625 -1.96875 L 0.421875 -2.25 L 0.328125 -2.453125 L 0.28125 -2.6875 L 0.28125 -2.875 L 0.296875 -3.171875 L 0.40625 -3.5 L 0.609375 -3.78125 L 0.90625 -3.96875 L 1.09375 -4.09375 L 1.328125 -4.15625 L 1.546875 -4.1875 L 1.6875 -4.21875 L 2.140625 -4.203125 L 2.375 -4.15625 L 2.703125 -4.046875 L 3.09375 -3.78125 L 3.234375 -3.59375 L 3.40625 -3.28125 L 3.40625 -3.171875 L 3.4375 -3.0625 L 3.390625 -2.953125 L 3.28125 -2.875 L 3.171875 -2.890625 L 3.046875 -2.890625 L 2.890625 -2.90625 L 2.609375 -2.875 L 2.46875 -2.953125 L 2.390625 -3.078125 L 2.171875 -3.234375 L 2.078125 -3.25 L 1.875 -3.28125 L 1.6875 -3.28125 L 1.578125 -3.25 L 1.484375 -3.203125 L 1.328125 -3.046875 L 1.296875 -2.890625 L 1.328125 -2.71875 L 1.40625 -2.625 L 1.625 -2.53125 L 1.953125 -2.453125 L 2.125 -2.453125 L 2.25 -2.4375 L 2.359375 -2.421875 L 2.484375 -2.40625 L 2.953125 -2.265625 L 3.046875 -2.203125 L 3.15625 -2.15625 L 3.25 -2.0625 L 3.484375 -1.78125 L 3.5625 -1.4375 L 3.578125 -1.25 L 3.546875 -0.953125 L 3.5 -0.84375 L 3.46875 -0.75 L 3.40625 -0.609375 L 3.34375 -0.53125 L 3.171875 -0.34375 L 2.765625 -0.109375 L 2.65625 -0.046875 L 2.546875 -0.046875 L 2.421875 0 L 2.3125 0.03125 L 2.1875 0.046875 L 2.078125 0.0625 Z M 1.59375 0.046875 "/></g></g></g><g fill="#000000" fill-opacity="1"><g transform="translate(80.061562, 20.488125)"><g><path d="M 1.140625 -0.1875 L 1.140625 -0.65625 L 1.15625 -0.765625 L 1.125 -1.125 L 1.140625 -1.25 L 1.125 -1.375 L 1.15625 -1.546875 L 1.140625 -1.71875 L 1.140625 -1.96875 L 1.15625 -2.078125 L 1.140625 -2.203125 L 1.15625 -2.375 L 1.140625 -3.03125 L 1.078125 -3.15625 L 0.96875 -3.21875 L 0.4375 -3.21875 L 0.28125 -3.203125 L 0.171875 -3.265625 L 0.09375 -3.390625 L 0.109375 -3.984375 L 0.171875 -4.109375 L 0.296875 -4.171875 L 2.078125 -4.15625 L 2.203125 -4.171875 L 2.328125 -4.171875 L 2.453125 -4.15625 L 2.5625 -4.15625 L 2.703125 -4.171875 L 3.046875 -4.171875 L 3.171875 -4.125 L 3.234375 -4 L 3.21875 -3.515625 L 3.234375 -3.390625 L 3.171875 -3.265625 L 3.03125 -3.21875 L 2.703125 -3.21875 L 2.59375 -3.203125 L 2.46875 -3.21875 L 2.375 -3.203125 L 2.25 -3.15625 L 2.203125 -3.046875 L 2.203125 -2.921875 L 2.1875 -2.796875 L 2.21875 -1.609375 L 2.203125 -1.359375 L 2.203125 -0.890625 L 2.171875 -0.765625 L 2.203125 -0.671875 L 2.203125 -0.421875 L 2.1875 -0.296875 L 2.203125 -0.171875 L 2.15625 -0.0625 L 2.03125 -0.015625 L 1.65625 -0.015625 L 1.546875 0 L 1.421875 -0.015625 L 1.3125 0 L 1.1875 -0.0625 Z M 1.140625 -0.1875 "/></g></g></g><g fill="#000000" fill-opacity="1"><g transform="translate(83.39016, 20.488125)"><g><path d="M 0.078125 -0.15625 L 0.15625 -0.40625 L 0.203125 -0.53125 L 0.28125 -0.625 L 0.453125 -1.0625 L 0.609375 -1.375 L 0.65625 -1.484375 L 0.703125 -1.578125 L 0.75 -1.703125 L 0.828125 -1.859375 L 0.875 -1.96875 L 0.953125 -2.125 L 1.046875 -2.34375 L 1.125 -2.453125 L 1.15625 -2.546875 L 1.484375 -3.296875 L 1.546875 -3.40625 L 1.796875 -3.953125 L 1.84375 -4.046875 L 1.953125 -4.15625 L 2.140625 -4.21875 L 2.34375 -4.171875 L 2.453125 -4.046875 L 2.484375 -3.9375 L 2.546875 -3.859375 L 2.640625 -3.625 L 2.75 -3.40625 L 2.84375 -3.203125 L 2.875 -3.09375 L 2.984375 -2.875 L 3.015625 -2.765625 L 3.140625 -2.546875 L 3.171875 -2.4375 L 3.234375 -2.34375 L 3.28125 -2.234375 L 3.34375 -2.125 L 3.375 -2.015625 L 3.421875 -1.921875 L 3.46875 -1.796875 L 3.53125 -1.703125 L 3.578125 -1.578125 L 3.640625 -1.484375 L 3.71875 -1.265625 L 3.78125 -1.171875 L 3.828125 -1.046875 L 3.921875 -0.84375 L 3.953125 -0.71875 L 4.015625 -0.640625 L 4.046875 -0.515625 L 4.125 -0.421875 L 4.171875 -0.3125 L 4.203125 -0.15625 L 4.1875 -0.03125 L 4.078125 0 L 3.703125 0.015625 L 3.5 0 L 3.390625 0 L 3.234375 -0.046875 L 3.140625 -0.15625 L 3.078125 -0.25 L 3.046875 -0.359375 L 2.921875 -0.453125 L 2.71875 -0.53125 L 2.4375 -0.515625 L 2.3125 -0.53125 L 2.203125 -0.53125 L 2.078125 -0.5 L 1.953125 -0.53125 L 1.609375 -0.515625 L 1.5 -0.53125 L 1.34375 -0.46875 L 1.25 -0.359375 L 1.15625 -0.15625 L 1.046875 -0.046875 L 0.90625 0.015625 L 0.75 0 L 0.21875 0 L 0.109375 -0.03125 Z M 1.921875 -1.46875 L 2.375 -1.46875 L 2.484375 -1.53125 L 2.5 -1.625 L 2.453125 -1.734375 L 2.390625 -1.859375 L 2.375 -1.953125 L 2.296875 -2.046875 L 2.21875 -2.28125 L 2.15625 -2.328125 L 2.078125 -2.28125 L 2.03125 -2.171875 L 1.78125 -1.640625 L 1.796875 -1.515625 Z M 1.921875 -1.46875 "/></g></g></g><g fill="#000000" fill-opacity="1"><g transform="translate(87.713167, 20.488125)"><g><path d="M 2.1875 0.0625 L 2.078125 0.0625 L 1.96875 0.03125 L 1.84375 0.03125 L 1.71875 -0.015625 L 1.625 -0.046875 L 1.515625 -0.078125 L 1.109375 -0.296875 L 1.015625 -0.375 L 0.921875 -0.4375 L 0.703125 -0.65625 L 0.46875 -1 L 0.421875 -1.09375 L 0.359375 -1.203125 L 0.34375 -1.3125 L 0.296875 -1.421875 L 0.234375 -1.65625 L 0.234375 -1.890625 L 0.21875 -2.078125 L 0.328125 -2.828125 L 0.59375 -3.359375 L 0.671875 -3.46875 L 0.828125 -3.609375 L 0.90625 -3.703125 L 1.3125 -3.984375 L 1.421875 -4.015625 L 1.515625 -4.078125 L 1.625 -4.109375 L 1.859375 -4.15625 L 1.96875 -4.203125 L 2.609375 -4.203125 L 2.90625 -4.171875 L 3.140625 -4.109375 L 3.484375 -3.953125 L 3.609375 -3.859375 L 3.921875 -3.578125 L 4.140625 -3.28125 L 4.234375 -3.046875 L 4.25 -2.9375 L 4.296875 -2.828125 L 4.265625 -2.703125 L 4.171875 -2.640625 L 4.046875 -2.625 L 3.453125 -2.640625 L 3.328125 -2.703125 L 3.21875 -2.8125 L 3.15625 -2.90625 L 3.078125 -3 L 2.90625 -3.15625 L 2.78125 -3.1875 L 2.546875 -3.234375 L 2.171875 -3.25 L 1.96875 -3.1875 L 1.859375 -3.140625 L 1.65625 -3 L 1.515625 -2.8125 L 1.40625 -2.59375 L 1.375 -2.484375 L 1.375 -2.375 L 1.328125 -2.265625 L 1.328125 -2.078125 L 1.34375 -1.796875 L 1.40625 -1.5625 L 1.453125 -1.453125 L 1.671875 -1.171875 L 1.75 -1.09375 L 1.875 -1.03125 L 2.1875 -0.921875 L 2.53125 -0.90625 L 2.65625 -0.921875 L 2.765625 -0.953125 L 2.96875 -1.0625 L 3.203125 -1.296875 L 3.25 -1.40625 L 3.359375 -1.515625 L 3.5 -1.578125 L 4.125 -1.578125 L 4.28125 -1.5 L 4.3125 -1.40625 L 4.296875 -1.28125 L 4.25 -1.171875 L 4.234375 -1.046875 L 4.171875 -0.953125 L 4 -0.640625 L 3.890625 -0.5625 L 3.828125 -0.453125 L 3.75 -0.375 L 3.65625 -0.3125 L 3.546875 -0.25 L 3.453125 -0.1875 L 3.125 -0.046875 L 2.546875 0.078125 Z M 2.1875 0.0625 "/></g></g></g><g fill="#000000" fill-opacity="1"><g transform="translate(92.256492, 20.488125)"><g><path d="M 0.453125 -0.171875 L 0.4375 -0.296875 L 0.453125 -0.40625 L 0.453125 -0.65625 L 0.421875 -0.890625 L 0.453125 -1.125 L 0.4375 -1.25 L 0.453125 -1.359375 L 0.453125 -2.796875 L 0.421875 -2.921875 L 0.453125 -3.15625 L 0.4375 -3.28125 L 0.4375 -3.390625 L 0.453125 -3.75 L 0.4375 -3.859375 L 0.4375 -3.984375 L 0.53125 -4.09375 L 0.625 -4.171875 L 1.09375 -4.15625 L 1.21875 -4.171875 L 1.34375 -4.15625 L 1.453125 -4.109375 L 1.515625 -3.96875 L 1.515625 -3.859375 L 1.53125 -3.734375 L 1.515625 -2.875 L 1.53125 -2.765625 L 1.53125 -2.640625 L 1.640625 -2.578125 L 1.78125 -2.578125 L 2.046875 -2.640625 L 2.140625 -2.6875 L 2.25 -2.75 L 2.34375 -2.828125 L 2.40625 -2.921875 L 2.484375 -3.015625 L 2.53125 -3.125 L 2.59375 -3.359375 L 2.625 -3.609375 L 2.609375 -3.984375 L 2.671875 -4.109375 L 2.8125 -4.171875 L 2.984375 -4.15625 L 3.53125 -4.171875 L 3.65625 -4.109375 L 3.703125 -3.96875 L 3.703125 -3.734375 L 3.6875 -3.625 L 3.703125 -3.484375 L 3.65625 -3.234375 L 3.65625 -3.125 L 3.59375 -2.90625 L 3.546875 -2.78125 L 3.515625 -2.671875 L 3.453125 -2.546875 L 3.328125 -2.34375 L 3.15625 -2.171875 L 3.046875 -2.109375 L 2.984375 -1.96875 L 2.984375 -1.84375 L 3.203125 -1.546875 L 3.375 -1.234375 L 3.4375 -1.125 L 3.484375 -1.03125 L 3.5625 -0.921875 L 3.671875 -0.71875 L 3.765625 -0.625 L 3.8125 -0.515625 L 3.875 -0.40625 L 3.953125 -0.328125 L 4 -0.171875 L 3.984375 -0.046875 L 3.875 0.015625 L 3.75 0 L 3.09375 0 L 2.890625 -0.046875 L 2.78125 -0.125 L 2.609375 -0.4375 L 2.53125 -0.546875 L 2.484375 -0.640625 L 2.40625 -0.75 L 2.265625 -1.046875 L 2.015625 -1.453125 L 1.90625 -1.546875 L 1.71875 -1.578125 L 1.578125 -1.515625 L 1.53125 -1.40625 L 1.53125 -1.03125 L 1.515625 -0.90625 L 1.53125 -0.1875 L 1.46875 -0.046875 L 1.296875 0 L 0.671875 0.015625 L 0.5 -0.046875 Z M 0.453125 -0.171875 "/></g></g></g><g fill="#000000" fill-opacity="1"><g transform="translate(96.382995, 20.488125)"><g/></g></g><g fill="#000000" fill-opacity="1"><g transform="translate(97.996682, 20.488125)"><g><path d="M 1.59375 0.046875 L 1.359375 0.015625 L 1.125 -0.078125 L 1 -0.109375 L 0.890625 -0.15625 L 0.8125 -0.25 L 0.59375 -0.375 L 0.53125 -0.46875 L 0.4375 -0.546875 L 0.328125 -0.765625 L 0.296875 -0.875 L 0.265625 -1 L 0.25 -1.109375 L 0.296875 -1.234375 L 0.40625 -1.28125 L 0.859375 -1.3125 L 0.96875 -1.296875 L 1.078125 -1.296875 L 1.203125 -1.25 L 1.40625 -1.046875 L 1.5 -0.96875 L 1.59375 -0.921875 L 1.90625 -0.890625 L 2.015625 -0.90625 L 2.203125 -0.921875 L 2.40625 -1.015625 L 2.46875 -1.09375 L 2.53125 -1.25 L 2.484375 -1.40625 L 2.40625 -1.46875 L 2.203125 -1.578125 L 1.265625 -1.671875 L 1.046875 -1.75 L 0.640625 -1.96875 L 0.421875 -2.25 L 0.328125 -2.453125 L 0.28125 -2.6875 L 0.28125 -2.875 L 0.296875 -3.171875 L 0.40625 -3.5 L 0.609375 -3.78125 L 0.90625 -3.96875 L 1.09375 -4.09375 L 1.328125 -4.15625 L 1.546875 -4.1875 L 1.6875 -4.21875 L 2.140625 -4.203125 L 2.375 -4.15625 L 2.703125 -4.046875 L 3.09375 -3.78125 L 3.234375 -3.59375 L 3.40625 -3.28125 L 3.40625 -3.171875 L 3.4375 -3.0625 L 3.390625 -2.953125 L 3.28125 -2.875 L 3.171875 -2.890625 L 3.046875 -2.890625 L 2.890625 -2.90625 L 2.609375 -2.875 L 2.46875 -2.953125 L 2.390625 -3.078125 L 2.171875 -3.234375 L 2.078125 -3.25 L 1.875 -3.28125 L 1.6875 -3.28125 L 1.578125 -3.25 L 1.484375 -3.203125 L 1.328125 -3.046875 L 1.296875 -2.890625 L 1.328125 -2.71875 L 1.40625 -2.625 L 1.625 -2.53125 L 1.953125 -2.453125 L 2.125 -2.453125 L 2.25 -2.4375 L 2.359375 -2.421875 L 2.484375 -2.40625 L 2.953125 -2.265625 L 3.046875 -2.203125 L 3.15625 -2.15625 L 3.25 -2.0625 L 3.484375 -1.78125 L 3.5625 -1.4375 L 3.578125 -1.25 L 3.546875 -0.953125 L 3.5 -0.84375 L 3.46875 -0.75 L 3.40625 -0.609375 L 3.34375 -0.53125 L 3.171875 -0.34375 L 2.765625 -0.109375 L 2.65625 -0.046875 L 2.546875 -0.046875 L 2.421875 0 L 2.3125 0.03125 L 2.1875 0.046875 L 2.078125 0.0625 Z M 1.59375 0.046875 "/></g></g></g><g fill="#000000" fill-opacity="1"><g transform="translate(101.795685, 20.488125)"><g><path d="M 2.21875 0.078125 L 2.09375 0.0625 L 1.890625 0.015625 L 1.75 0 L 1.578125 -0.0625 L 1.125 -0.296875 L 0.921875 -0.453125 L 0.859375 -0.53125 L 0.765625 -0.609375 L 0.6875 -0.703125 L 0.625 -0.78125 L 0.34375 -1.328125 L 0.296875 -1.546875 L 0.28125 -1.65625 L 0.25 -1.765625 L 0.234375 -1.890625 L 0.25 -2.375 L 0.34375 -2.828125 L 0.4375 -3.0625 L 0.625 -3.375 L 0.921875 -3.71875 L 1.125 -3.859375 L 1.3125 -3.984375 L 1.765625 -4.15625 L 2.390625 -4.234375 L 2.546875 -4.234375 L 2.90625 -4.171875 L 3.359375 -4.03125 L 3.453125 -3.96875 L 3.625 -3.890625 L 3.765625 -3.796875 L 3.9375 -3.640625 L 4.109375 -3.453125 L 4.234375 -3.28125 L 4.34375 -3.0625 L 4.5 -2.609375 L 4.53125 -2.375 L 4.546875 -2.078125 L 4.53125 -1.90625 L 4.53125 -1.78125 L 4.5 -1.65625 L 4.484375 -1.546875 L 4.4375 -1.328125 L 4.359375 -1.09375 L 4.09375 -0.703125 L 4 -0.609375 L 3.921875 -0.5 L 3.765625 -0.359375 L 3.65625 -0.3125 L 3.5625 -0.234375 L 3.359375 -0.125 L 2.921875 0.015625 L 2.5625 0.0625 Z M 2.5625 -0.984375 L 2.671875 -1 L 2.765625 -1.046875 L 2.875 -1.078125 L 3.15625 -1.28125 L 3.25 -1.375 L 3.28125 -1.453125 L 3.34375 -1.5625 L 3.390625 -1.671875 L 3.4375 -1.890625 L 3.453125 -2.25 L 3.421875 -2.359375 L 3.375 -2.46875 L 3.296875 -2.703125 L 3.078125 -2.953125 L 2.890625 -3.078125 L 2.78125 -3.125 L 2.671875 -3.15625 L 2.390625 -3.1875 L 2.21875 -3.171875 L 1.984375 -3.109375 L 1.90625 -3.078125 L 1.609375 -2.875 L 1.46875 -2.6875 L 1.4375 -2.578125 L 1.390625 -2.46875 L 1.375 -2.359375 L 1.34375 -2.25 L 1.34375 -1.890625 L 1.390625 -1.671875 L 1.4375 -1.5625 L 1.46875 -1.46875 L 1.546875 -1.359375 L 1.625 -1.28125 L 1.796875 -1.140625 L 1.890625 -1.09375 L 2.09375 -1 L 2.234375 -0.984375 Z M 2.5625 -0.984375 "/></g></g></g><g fill="#000000" fill-opacity="1"><g transform="translate(106.571237, 20.488125)"><g><path d="M 0.4375 -0.171875 L 0.453125 -0.28125 L 0.4375 -0.421875 L 0.453125 -1.65625 L 0.421875 -1.84375 L 0.4375 -1.96875 L 0.4375 -2.09375 L 0.453125 -2.203125 L 0.4375 -2.3125 L 0.4375 -3.15625 L 0.453125 -3.265625 L 0.421875 -3.984375 L 0.5 -4.09375 L 0.609375 -4.15625 L 2.03125 -4.15625 L 2.140625 -4.171875 L 2.25 -4.15625 L 2.5 -4.15625 L 2.71875 -4.171875 L 2.859375 -4.15625 L 2.96875 -4.109375 L 3.03125 -3.984375 L 3.046875 -3.859375 L 3.03125 -3.734375 L 3.046875 -3.625 L 3.03125 -3.5 L 3.03125 -3.390625 L 2.984375 -3.28125 L 2.875 -3.21875 L 2.75 -3.203125 L 2.515625 -3.21875 L 2.390625 -3.203125 L 2.09375 -3.21875 L 1.921875 -3.203125 L 1.75 -3.21875 L 1.578125 -3.15625 L 1.53125 -3.03125 L 1.53125 -2.9375 L 1.515625 -2.8125 L 1.515625 -2.453125 L 1.578125 -2.34375 L 1.71875 -2.296875 L 2.625 -2.296875 L 2.796875 -2.25 L 2.859375 -2.125 L 2.875 -2 L 2.859375 -1.65625 L 2.875 -1.515625 L 2.796875 -1.40625 L 2.6875 -1.34375 L 1.765625 -1.34375 L 1.578125 -1.28125 L 1.53125 -1.15625 L 1.515625 -1.03125 L 1.53125 -0.921875 L 1.515625 -0.796875 L 1.53125 -0.546875 L 1.53125 -0.234375 L 1.453125 -0.046875 L 1.328125 0 L 0.671875 0.015625 L 0.5 -0.046875 Z M 0.4375 -0.171875 "/></g></g></g><g fill="#000000" fill-opacity="1"><g transform="translate(109.816464, 20.488125)"><g><path d="M 1.140625 -0.1875 L 1.140625 -0.65625 L 1.15625 -0.765625 L 1.125 -1.125 L 1.140625 -1.25 L 1.125 -1.375 L 1.15625 -1.546875 L 1.140625 -1.71875 L 1.140625 -1.96875 L 1.15625 -2.078125 L 1.140625 -2.203125 L 1.15625 -2.375 L 1.140625 -3.03125 L 1.078125 -3.15625 L 0.96875 -3.21875 L 0.4375 -3.21875 L 0.28125 -3.203125 L 0.171875 -3.265625 L 0.09375 -3.390625 L 0.109375 -3.984375 L 0.171875 -4.109375 L 0.296875 -4.171875 L 2.078125 -4.15625 L 2.203125 -4.171875 L 2.328125 -4.171875 L 2.453125 -4.15625 L 2.5625 -4.15625 L 2.703125 -4.171875 L 3.046875 -4.171875 L 3.171875 -4.125 L 3.234375 -4 L 3.21875 -3.515625 L 3.234375 -3.390625 L 3.171875 -3.265625 L 3.03125 -3.21875 L 2.703125 -3.21875 L 2.59375 -3.203125 L 2.46875 -3.21875 L 2.375 -3.203125 L 2.25 -3.15625 L 2.203125 -3.046875 L 2.203125 -2.921875 L 2.1875 -2.796875 L 2.21875 -1.609375 L 2.203125 -1.359375 L 2.203125 -0.890625 L 2.171875 -0.765625 L 2.203125 -0.671875 L 2.203125 -0.421875 L 2.1875 -0.296875 L 2.203125 -0.171875 L 2.15625 -0.0625 L 2.03125 -0.015625 L 1.65625 -0.015625 L 1.546875 0 L 1.421875 -0.015625 L 1.3125 0 L 1.1875 -0.0625 Z M 1.140625 -0.1875 "/></g></g></g><g fill="#000000" fill-opacity="1"><g transform="translate(113.145062, 20.488125)"><g><path d="M 1.453125 -0.125 L 1.359375 -0.34375 L 1.296875 -0.578125 L 0.859375 -1.6875 L 0.84375 -1.796875 L 0.78125 -1.921875 L 0.765625 -2.046875 L 0.625 -2.375 L 0.59375 -2.46875 L 0.546875 -2.59375 L 0.515625 -2.703125 L 0.46875 -2.8125 L 0.34375 -3.15625 L 0.296875 -3.25 L 0.265625 -3.375 L 0.203125 -3.484375 L 0.140625 -3.703125 L 0.078125 -3.828125 L 0.046875 -3.984375 L 0.078125 -4.109375 L 0.203125 -4.15625 L 0.4375 -4.15625 L 0.53125 -4.171875 L 0.90625 -4.15625 L 1 -4.171875 L 1.15625 -4.109375 L 1.25 -4 L 1.28125 -3.875 L 1.3125 -3.765625 L 1.34375 -3.640625 L 1.421875 -3.40625 L 1.484375 -3.296875 L 1.828125 -1.984375 L 1.859375 -1.984375 L 1.921875 -2.109375 L 1.953125 -2.203125 L 2.015625 -2.328125 L 2.046875 -2.453125 L 2.078125 -2.5625 L 2.203125 -2.890625 L 2.234375 -3.03125 L 2.40625 -3.453125 L 2.453125 -3.6875 L 2.5625 -3.921875 L 2.640625 -4.046875 L 2.765625 -4.109375 L 2.875 -4.109375 L 3.03125 -4.046875 L 3.125 -3.921875 L 3.375 -3.25 L 3.390625 -3.125 L 3.453125 -3 L 3.46875 -2.890625 L 3.6875 -2.328125 L 3.703125 -2.203125 L 3.765625 -2.109375 L 3.78125 -2 L 3.84375 -1.984375 L 4.109375 -3.015625 L 4.203125 -3.296875 L 4.25 -3.421875 L 4.359375 -3.78125 L 4.40625 -3.875 L 4.4375 -4 L 4.53125 -4.109375 L 4.671875 -4.171875 L 4.78125 -4.15625 L 5.421875 -4.171875 L 5.609375 -4.125 L 5.625 -3.984375 L 5.484375 -3.484375 L 5.40625 -3.375 L 5.296875 -3.046875 L 5.25 -2.9375 L 5.21875 -2.828125 L 5.171875 -2.703125 L 5.109375 -2.484375 L 5.046875 -2.375 L 4.90625 -1.921875 L 4.78125 -1.65625 L 4.734375 -1.484375 L 4.671875 -1.359375 L 4.65625 -1.25 L 4.59375 -1.140625 L 4.515625 -0.90625 L 4.421875 -0.6875 L 4.359375 -0.453125 L 4.25 -0.234375 L 4.234375 -0.125 L 4.125 -0.015625 L 3.984375 0.03125 L 3.78125 0.046875 L 3.640625 0 L 3.53125 -0.140625 L 3.4375 -0.34375 L 3.421875 -0.46875 L 3.375 -0.578125 L 3.3125 -0.6875 L 3.21875 -0.90625 L 3.1875 -1.03125 L 3.09375 -1.234375 L 3.0625 -1.359375 L 3 -1.46875 L 2.953125 -1.578125 L 2.921875 -1.6875 L 2.859375 -1.796875 L 2.8125 -1.796875 L 2.78125 -1.6875 L 2.671875 -1.453125 L 2.640625 -1.359375 L 2.40625 -0.796875 L 2.375 -0.671875 L 2.328125 -0.578125 L 2.25 -0.34375 L 2.140625 -0.125 L 2.046875 -0.015625 L 1.90625 0.03125 L 1.671875 0.03125 L 1.546875 0 Z M 1.453125 -0.125 "/></g></g></g><g fill="#000000" fill-opacity="1"><g transform="translate(118.825702, 20.488125)"><g><path d="M 0.078125 -0.15625 L 0.15625 -0.40625 L 0.203125 -0.53125 L 0.28125 -0.625 L 0.453125 -1.0625 L 0.609375 -1.375 L 0.65625 -1.484375 L 0.703125 -1.578125 L 0.75 -1.703125 L 0.828125 -1.859375 L 0.875 -1.96875 L 0.953125 -2.125 L 1.046875 -2.34375 L 1.125 -2.453125 L 1.15625 -2.546875 L 1.484375 -3.296875 L 1.546875 -3.40625 L 1.796875 -3.953125 L 1.84375 -4.046875 L 1.953125 -4.15625 L 2.140625 -4.21875 L 2.34375 -4.171875 L 2.453125 -4.046875 L 2.484375 -3.9375 L 2.546875 -3.859375 L 2.640625 -3.625 L 2.75 -3.40625 L 2.84375 -3.203125 L 2.875 -3.09375 L 2.984375 -2.875 L 3.015625 -2.765625 L 3.140625 -2.546875 L 3.171875 -2.4375 L 3.234375 -2.34375 L 3.28125 -2.234375 L 3.34375 -2.125 L 3.375 -2.015625 L 3.421875 -1.921875 L 3.46875 -1.796875 L 3.53125 -1.703125 L 3.578125 -1.578125 L 3.640625 -1.484375 L 3.71875 -1.265625 L 3.78125 -1.171875 L 3.828125 -1.046875 L 3.921875 -0.84375 L 3.953125 -0.71875 L 4.015625 -0.640625 L 4.046875 -0.515625 L 4.125 -0.421875 L 4.171875 -0.3125 L 4.203125 -0.15625 L 4.1875 -0.03125 L 4.078125 0 L 3.703125 0.015625 L 3.5 0 L 3.390625 0 L 3.234375 -0.046875 L 3.140625 -0.15625 L 3.078125 -0.25 L 3.046875 -0.359375 L 2.921875 -0.453125 L 2.71875 -0.53125 L 2.4375 -0.515625 L 2.3125 -0.53125 L 2.203125 -0.53125 L 2.078125 -0.5 L 1.953125 -0.53125 L 1.609375 -0.515625 L 1.5 -0.53125 L 1.34375 -0.46875 L 1.25 -0.359375 L 1.15625 -0.15625 L 1.046875 -0.046875 L 0.90625 0.015625 L 0.75 0 L 0.21875 0 L 0.109375 -0.03125 Z M 1.921875 -1.46875 L 2.375 -1.46875 L 2.484375 -1.53125 L 2.5 -1.625 L 2.453125 -1.734375 L 2.390625 -1.859375 L 2.375 -1.953125 L 2.296875 -2.046875 L 2.21875 -2.28125 L 2.15625 -2.328125 L 2.078125 -2.28125 L 2.03125 -2.171875 L 1.78125 -1.640625 L 1.796875 -1.515625 Z M 1.921875 -1.46875 "/></g></g></g><g fill="#000000" fill-opacity="1"><g transform="translate(123.14871, 20.488125)"><g><path d="M 0.453125 -0.1875 L 0.4375 -0.65625 L 0.453125 -0.78125 L 0.421875 -1.125 L 0.453125 -1.375 L 0.421875 -1.5 L 0.4375 -1.71875 L 0.453125 -1.84375 L 0.453125 -2.15625 L 0.421875 -2.328125 L 0.453125 -3.984375 L 0.5 -4.109375 L 0.609375 -4.171875 L 0.734375 -4.15625 L 0.84375 -4.171875 L 1.09375 -4.15625 L 1.203125 -4.171875 L 1.5625 -4.15625 L 1.671875 -4.171875 L 1.796875 -4.15625 L 1.921875 -4.171875 L 2.21875 -4.171875 L 2.375 -4.15625 L 2.859375 -4.0625 L 3.078125 -3.953125 L 3.375 -3.734375 L 3.421875 -3.640625 L 3.5 -3.546875 L 3.671875 -3.21875 L 3.703125 -3.09375 L 3.71875 -2.984375 L 3.75 -2.875 L 3.734375 -2.40625 L 3.671875 -2.171875 L 3.625 -2.078125 L 3.5625 -1.96875 L 3.53125 -1.859375 L 3.453125 -1.75 L 3.28125 -1.59375 L 3.21875 -1.46875 L 3.234375 -1.328125 L 3.421875 -1.015625 L 3.5 -0.921875 L 3.546875 -0.8125 L 3.625 -0.703125 L 3.671875 -0.609375 L 3.875 -0.3125 L 3.953125 -0.171875 L 3.921875 -0.046875 L 3.796875 -0.015625 L 3.671875 0 L 3.421875 0 L 3.3125 -0.015625 L 3.171875 0 L 2.96875 -0.015625 L 2.8125 -0.046875 L 2.703125 -0.15625 L 2.625 -0.25 L 2.578125 -0.34375 L 2.5 -0.46875 L 2.328125 -0.765625 L 2.28125 -0.875 L 2.125 -1.078125 L 2.03125 -1.1875 L 1.890625 -1.234375 L 1.78125 -1.21875 L 1.671875 -1.21875 L 1.546875 -1.171875 L 1.5 -1.046875 L 1.515625 -0.671875 L 1.5 -0.421875 L 1.515625 -0.296875 L 1.5 -0.171875 L 1.46875 -0.0625 L 1.28125 0 L 1.09375 0 L 0.96875 -0.015625 L 0.734375 0 L 0.625 0 L 0.5 -0.0625 Z M 1.671875 -2.1875 L 1.796875 -2.1875 L 1.921875 -2.171875 L 2.390625 -2.21875 L 2.46875 -2.25 L 2.546875 -2.328125 L 2.609375 -2.421875 L 2.65625 -2.546875 L 2.671875 -2.703125 L 2.671875 -2.875 L 2.625 -2.96875 L 2.5625 -3.0625 L 2.375 -3.171875 L 2.109375 -3.21875 L 1.6875 -3.21875 L 1.5625 -3.15625 L 1.5 -3.03125 L 1.515625 -2.375 L 1.578125 -2.25 Z M 1.671875 -2.1875 "/></g></g></g><g fill="#000000" fill-opacity="1"><g transform="translate(127.275213, 20.488125)"><g><path d="M 0.421875 -0.171875 L 0.453125 -0.296875 L 0.453125 -0.765625 L 0.4375 -0.90625 L 0.453125 -1 L 0.453125 -1.25 L 0.4375 -1.375 L 0.453125 -1.609375 L 0.4375 -1.84375 L 0.453125 -1.96875 L 0.453125 -3.03125 L 0.4375 -3.140625 L 0.453125 -3.265625 L 0.421875 -3.578125 L 0.453125 -3.75 L 0.4375 -3.984375 L 0.5 -4.109375 L 0.671875 -4.15625 L 1.453125 -4.171875 L 1.5625 -4.15625 L 1.796875 -4.171875 L 1.90625 -4.15625 L 2.171875 -4.171875 L 2.296875 -4.15625 L 2.875 -4.15625 L 3 -4.109375 L 3.0625 -3.984375 L 3.046875 -3.875 L 3.03125 -3.734375 L 3.046875 -3.625 L 3.0625 -3.375 L 3 -3.28125 L 2.875 -3.203125 L 1.734375 -3.203125 L 1.546875 -3.15625 L 1.484375 -2.96875 L 1.5 -2.796875 L 1.578125 -2.6875 L 1.671875 -2.625 L 2.140625 -2.625 L 2.28125 -2.609375 L 2.40625 -2.609375 L 2.53125 -2.625 L 2.765625 -2.625 L 2.859375 -2.546875 L 2.921875 -2.4375 L 2.921875 -1.84375 L 2.859375 -1.734375 L 2.734375 -1.671875 L 2.34375 -1.671875 L 2.03125 -1.6875 L 1.90625 -1.671875 L 1.671875 -1.671875 L 1.578125 -1.609375 L 1.515625 -1.484375 L 1.515625 -1.1875 L 1.5625 -1 L 1.6875 -0.9375 L 1.828125 -0.953125 L 1.953125 -0.9375 L 2.0625 -0.953125 L 2.84375 -0.9375 L 3.03125 -0.875 L 3.109375 -0.765625 L 3.09375 -0.65625 L 3.09375 -0.171875 L 3.03125 -0.046875 L 2.90625 0 L 2.796875 0.015625 L 2.4375 0 L 2.078125 0.015625 L 1.96875 0 L 0.625 0 L 0.5 -0.0625 Z M 0.421875 -0.171875 "/></g></g></g><g fill="#000000" fill-opacity="1"><g transform="translate(130.687174, 20.488125)"><g/></g></g><g fill="#000000" fill-opacity="1"><g transform="translate(132.300861, 20.488125)"><g><path d="M 1.828125 0.015625 L 1.59375 0 L 1.46875 0.015625 L 0.75 0 L 0.625 0.015625 L 0.5 -0.046875 L 0.453125 -0.234375 L 0.453125 -0.53125 L 0.4375 -0.65625 L 0.4375 -3.984375 L 0.5 -4.109375 L 0.625 -4.15625 L 0.75 -4.15625 L 0.84375 -4.171875 L 2.203125 -4.15625 L 2.5625 -4.109375 L 2.6875 -4.078125 L 2.78125 -4.03125 L 2.90625 -4 L 3.015625 -3.9375 L 3.328125 -3.734375 L 3.640625 -3.375 L 3.84375 -3.0625 L 3.890625 -2.953125 L 3.96875 -2.71875 L 4.046875 -2.25 L 4.046875 -2.078125 L 4.03125 -1.890625 L 4.03125 -1.765625 L 4.015625 -1.65625 L 3.984375 -1.546875 L 3.953125 -1.421875 L 3.921875 -1.3125 L 3.828125 -1.078125 L 3.765625 -0.984375 L 3.703125 -0.859375 L 3.40625 -0.484375 L 3.015625 -0.21875 L 2.734375 -0.09375 L 2.484375 -0.0625 L 2.3125 0 L 2.203125 0 L 2.015625 0.015625 Z M 1.8125 -0.953125 L 2 -0.96875 L 2.25 -1 L 2.421875 -1.046875 L 2.625 -1.171875 L 2.84375 -1.421875 L 2.953125 -1.65625 L 3 -2.0625 L 2.90625 -2.59375 L 2.859375 -2.703125 L 2.796875 -2.796875 L 2.703125 -2.90625 L 2.625 -2.984375 L 2.53125 -3.046875 L 2.421875 -3.109375 L 2.1875 -3.171875 L 2.015625 -3.1875 L 1.765625 -3.1875 L 1.578125 -3.140625 L 1.515625 -3 L 1.5 -2.90625 L 1.515625 -2.078125 L 1.5 -1.78125 L 1.515625 -1.5 L 1.515625 -1.15625 L 1.5625 -1.03125 L 1.703125 -0.96875 Z M 1.8125 -0.953125 "/></g></g></g><g fill="#000000" fill-opacity="1"><g transform="translate(136.629819, 20.488125)"><g><path d="M 0.421875 -0.171875 L 0.453125 -0.296875 L 0.453125 -0.765625 L 0.4375 -0.90625 L 0.453125 -1 L 0.453125 -1.25 L 0.4375 -1.375 L 0.453125 -1.609375 L 0.4375 -1.84375 L 0.453125 -1.96875 L 0.453125 -3.03125 L 0.4375 -3.140625 L 0.453125 -3.265625 L 0.421875 -3.578125 L 0.453125 -3.75 L 0.4375 -3.984375 L 0.5 -4.109375 L 0.671875 -4.15625 L 1.453125 -4.171875 L 1.5625 -4.15625 L 1.796875 -4.171875 L 1.90625 -4.15625 L 2.171875 -4.171875 L 2.296875 -4.15625 L 2.875 -4.15625 L 3 -4.109375 L 3.0625 -3.984375 L 3.046875 -3.875 L 3.03125 -3.734375 L 3.046875 -3.625 L 3.0625 -3.375 L 3 -3.28125 L 2.875 -3.203125 L 1.734375 -3.203125 L 1.546875 -3.15625 L 1.484375 -2.96875 L 1.5 -2.796875 L 1.578125 -2.6875 L 1.671875 -2.625 L 2.140625 -2.625 L 2.28125 -2.609375 L 2.40625 -2.609375 L 2.53125 -2.625 L 2.765625 -2.625 L 2.859375 -2.546875 L 2.921875 -2.4375 L 2.921875 -1.84375 L 2.859375 -1.734375 L 2.734375 -1.671875 L 2.34375 -1.671875 L 2.03125 -1.6875 L 1.90625 -1.671875 L 1.671875 -1.671875 L 1.578125 -1.609375 L 1.515625 -1.484375 L 1.515625 -1.1875 L 1.5625 -1 L 1.6875 -0.9375 L 1.828125 -0.953125 L 1.953125 -0.9375 L 2.0625 -0.953125 L 2.84375 -0.9375 L 3.03125 -0.875 L 3.109375 -0.765625 L 3.09375 -0.65625 L 3.09375 -0.171875 L 3.03125 -0.046875 L 2.90625 0 L 2.796875 0.015625 L 2.4375 0 L 2.078125 0.015625 L 1.96875 0 L 0.625 0 L 0.5 -0.0625 Z M 0.421875 -0.171875 "/></g></g></g><g fill="#000000" fill-opacity="1"><g transform="translate(140.04178, 20.488125)"><g><path d="M 1.671875 -0.109375 L 1.515625 -0.4375 L 1.484375 -0.5625 L 1.421875 -0.65625 L 1.28125 -1 L 1.140625 -1.328125 L 1.109375 -1.421875 L 0.71875 -2.3125 L 0.65625 -2.40625 L 0.328125 -3.171875 L 0.25 -3.296875 L 0.21875 -3.40625 L 0.171875 -3.5 L 0.078125 -3.734375 L 0.03125 -3.84375 L 0 -3.984375 L 0.015625 -4.109375 L 0.140625 -4.171875 L 0.265625 -4.171875 L 0.375 -4.15625 L 0.46875 -4.171875 L 0.796875 -4.15625 L 0.9375 -4.109375 L 1.046875 -3.984375 L 1.09375 -3.890625 L 1.140625 -3.78125 L 1.203125 -3.671875 L 1.21875 -3.5625 L 1.421875 -3.125 L 1.484375 -2.90625 L 1.546875 -2.8125 L 1.609375 -2.578125 L 1.671875 -2.46875 L 1.71875 -2.375 L 1.75 -2.25 L 1.796875 -2.140625 L 1.875 -1.921875 L 1.921875 -1.8125 L 2 -1.828125 L 2.078125 -1.921875 L 2.09375 -2.03125 L 2.15625 -2.15625 L 2.875 -3.890625 L 2.90625 -4 L 3 -4.109375 L 3.140625 -4.15625 L 3.84375 -4.15625 L 3.953125 -4.125 L 3.984375 -3.984375 L 3.921875 -3.828125 L 3.90625 -3.734375 L 3.84375 -3.625 L 3.796875 -3.5 L 3.734375 -3.40625 L 3.703125 -3.296875 L 3.609375 -3.0625 L 3.53125 -2.96875 L 3.5 -2.859375 L 3.421875 -2.75 L 3.359375 -2.53125 L 3.296875 -2.421875 L 3.234375 -2.1875 L 3.109375 -1.96875 L 3.03125 -1.75 L 2.671875 -0.984375 L 2.640625 -0.875 L 2.546875 -0.65625 L 2.484375 -0.5625 L 2.4375 -0.453125 L 2.328125 -0.21875 L 2.296875 -0.09375 L 2.203125 0 L 2.03125 0.0625 L 1.921875 0.046875 L 1.78125 0 Z M 1.671875 -0.109375 "/></g></g></g><g fill="#000000" fill-opacity="1"><g transform="translate(144.055149, 20.488125)"><g><path d="M 0.421875 -0.171875 L 0.453125 -0.296875 L 0.453125 -0.765625 L 0.4375 -0.90625 L 0.453125 -1 L 0.453125 -1.25 L 0.4375 -1.375 L 0.453125 -1.609375 L 0.4375 -1.84375 L 0.453125 -1.96875 L 0.453125 -3.03125 L 0.4375 -3.140625 L 0.453125 -3.265625 L 0.421875 -3.578125 L 0.453125 -3.75 L 0.4375 -3.984375 L 0.5 -4.109375 L 0.671875 -4.15625 L 1.453125 -4.171875 L 1.5625 -4.15625 L 1.796875 -4.171875 L 1.90625 -4.15625 L 2.171875 -4.171875 L 2.296875 -4.15625 L 2.875 -4.15625 L 3 -4.109375 L 3.0625 -3.984375 L 3.046875 -3.875 L 3.03125 -3.734375 L 3.046875 -3.625 L 3.0625 -3.375 L 3 -3.28125 L 2.875 -3.203125 L 1.734375 -3.203125 L 1.546875 -3.15625 L 1.484375 -2.96875 L 1.5 -2.796875 L 1.578125 -2.6875 L 1.671875 -2.625 L 2.140625 -2.625 L 2.28125 -2.609375 L 2.40625 -2.609375 L 2.53125 -2.625 L 2.765625 -2.625 L 2.859375 -2.546875 L 2.921875 -2.4375 L 2.921875 -1.84375 L 2.859375 -1.734375 L 2.734375 -1.671875 L 2.34375 -1.671875 L 2.03125 -1.6875 L 1.90625 -1.671875 L 1.671875 -1.671875 L 1.578125 -1.609375 L 1.515625 -1.484375 L 1.515625 -1.1875 L 1.5625 -1 L 1.6875 -0.9375 L 1.828125 -0.953125 L 1.953125 -0.9375 L 2.0625 -0.953125 L 2.84375 -0.9375 L 3.03125 -0.875 L 3.109375 -0.765625 L 3.09375 -0.65625 L 3.09375 -0.171875 L 3.03125 -0.046875 L 2.90625 0 L 2.796875 0.015625 L 2.4375 0 L 2.078125 0.015625 L 1.96875 0 L 0.625 0 L 0.5 -0.0625 Z M 0.421875 -0.171875 "/></g></g></g><g fill="#000000" fill-opacity="1"><g transform="translate(147.46711, 20.488125)"><g><path d="M 0.453125 -0.171875 L 0.4375 -0.296875 L 0.453125 -0.40625 L 0.453125 -1.25 L 0.4375 -1.359375 L 0.4375 -1.59375 L 0.453125 -1.71875 L 0.4375 -1.953125 L 0.453125 -2.078125 L 0.4375 -2.328125 L 0.453125 -2.4375 L 0.4375 -2.5625 L 0.453125 -2.671875 L 0.4375 -2.796875 L 0.453125 -2.90625 L 0.453125 -3.03125 L 0.46875 -3.15625 L 0.453125 -3.265625 L 0.4375 -3.390625 L 0.453125 -3.515625 L 0.46875 -3.625 L 0.421875 -3.9375 L 0.5 -4.09375 L 0.671875 -4.15625 L 1.296875 -4.171875 L 1.453125 -4.109375 L 1.515625 -3.921875 L 1.53125 -3.625 L 1.515625 -3.5 L 1.53125 -2.578125 L 1.515625 -2.453125 L 1.53125 -2.3125 L 1.515625 -2.15625 L 1.515625 -1.84375 L 1.5 -1.71875 L 1.515625 -1.609375 L 1.515625 -1.46875 L 1.53125 -1.359375 L 1.53125 -1.140625 L 1.5625 -1.015625 L 1.6875 -0.953125 L 2.734375 -0.953125 L 2.859375 -0.96875 L 2.953125 -0.90625 L 3.03125 -0.78125 L 3.015625 -0.65625 L 3.03125 -0.53125 L 3.03125 -0.421875 L 3.015625 -0.296875 L 3.03125 -0.171875 L 2.96875 -0.0625 L 2.796875 0 L 0.6875 0 L 0.5 -0.0625 Z M 0.453125 -0.171875 "/></g></g></g><g fill="#000000" fill-opacity="1"><g transform="translate(150.670656, 20.488125)"><g><path d="M 2.21875 0.078125 L 2.09375 0.0625 L 1.890625 0.015625 L 1.75 0 L 1.578125 -0.0625 L 1.125 -0.296875 L 0.921875 -0.453125 L 0.859375 -0.53125 L 0.765625 -0.609375 L 0.6875 -0.703125 L 0.625 -0.78125 L 0.34375 -1.328125 L 0.296875 -1.546875 L 0.28125 -1.65625 L 0.25 -1.765625 L 0.234375 -1.890625 L 0.25 -2.375 L 0.34375 -2.828125 L 0.4375 -3.0625 L 0.625 -3.375 L 0.921875 -3.71875 L 1.125 -3.859375 L 1.3125 -3.984375 L 1.765625 -4.15625 L 2.390625 -4.234375 L 2.546875 -4.234375 L 2.90625 -4.171875 L 3.359375 -4.03125 L 3.453125 -3.96875 L 3.625 -3.890625 L 3.765625 -3.796875 L 3.9375 -3.640625 L 4.109375 -3.453125 L 4.234375 -3.28125 L 4.34375 -3.0625 L 4.5 -2.609375 L 4.53125 -2.375 L 4.546875 -2.078125 L 4.53125 -1.90625 L 4.53125 -1.78125 L 4.5 -1.65625 L 4.484375 -1.546875 L 4.4375 -1.328125 L 4.359375 -1.09375 L 4.09375 -0.703125 L 4 -0.609375 L 3.921875 -0.5 L 3.765625 -0.359375 L 3.65625 -0.3125 L 3.5625 -0.234375 L 3.359375 -0.125 L 2.921875 0.015625 L 2.5625 0.0625 Z M 2.5625 -0.984375 L 2.671875 -1 L 2.765625 -1.046875 L 2.875 -1.078125 L 3.15625 -1.28125 L 3.25 -1.375 L 3.28125 -1.453125 L 3.34375 -1.5625 L 3.390625 -1.671875 L 3.4375 -1.890625 L 3.453125 -2.25 L 3.421875 -2.359375 L 3.375 -2.46875 L 3.296875 -2.703125 L 3.078125 -2.953125 L 2.890625 -3.078125 L 2.78125 -3.125 L 2.671875 -3.15625 L 2.390625 -3.1875 L 2.21875 -3.171875 L 1.984375 -3.109375 L 1.90625 -3.078125 L 1.609375 -2.875 L 1.46875 -2.6875 L 1.4375 -2.578125 L 1.390625 -2.46875 L 1.375 -2.359375 L 1.34375 -2.25 L 1.34375 -1.890625 L 1.390625 -1.671875 L 1.4375 -1.5625 L 1.46875 -1.46875 L 1.546875 -1.359375 L 1.625 -1.28125 L 1.796875 -1.140625 L 1.890625 -1.09375 L 2.09375 -1 L 2.234375 -0.984375 Z M 2.5625 -0.984375 "/></g></g></g><g fill="#000000" fill-opacity="1"><g transform="translate(155.446208, 20.488125)"><g><path d="M 0.4375 -0.1875 L 0.4375 -0.296875 L 0.453125 -0.40625 L 0.421875 -0.53125 L 0.453125 -0.640625 L 0.4375 -1.015625 L 0.453125 -1.25 L 0.4375 -1.375 L 0.4375 -1.625 L 0.453125 -1.734375 L 0.4375 -1.90625 L 0.453125 -2.078125 L 0.4375 -2.3125 L 0.453125 -2.453125 L 0.4375 -2.546875 L 0.453125 -2.671875 L 0.453125 -3.28125 L 0.4375 -3.40625 L 0.4375 -3.515625 L 0.453125 -3.625 L 0.453125 -3.875 L 0.46875 -4 L 0.53125 -4.109375 L 0.6875 -4.15625 L 2.46875 -4.15625 L 2.578125 -4.125 L 2.6875 -4.078125 L 2.8125 -4.0625 L 3.03125 -3.953125 L 3.203125 -3.828125 L 3.3125 -3.734375 L 3.375 -3.65625 L 3.53125 -3.46875 L 3.65625 -3.25 L 3.75 -2.78125 L 3.75 -2.4375 L 3.734375 -2.328125 L 3.6875 -2.078125 L 3.640625 -1.96875 L 3.59375 -1.875 L 3.40625 -1.578125 L 3.21875 -1.40625 L 3.125 -1.34375 L 2.921875 -1.21875 L 2.578125 -1.109375 L 2.328125 -1.0625 L 2.03125 -1.0625 L 1.84375 -1.078125 L 1.71875 -1.0625 L 1.546875 -1 L 1.515625 -0.90625 L 1.515625 -0.78125 L 1.53125 -0.640625 L 1.5 -0.53125 L 1.515625 -0.421875 L 1.515625 -0.1875 L 1.453125 -0.0625 L 1.34375 0 L 0.734375 0 L 0.609375 -0.015625 L 0.484375 -0.0625 Z M 1.703125 -2.03125 L 1.84375 -2.015625 L 2.328125 -2.046875 L 2.421875 -2.09375 L 2.515625 -2.171875 L 2.65625 -2.328125 L 2.71875 -2.609375 L 2.671875 -2.890625 L 2.609375 -2.984375 L 2.515625 -3.078125 L 2.328125 -3.203125 L 1.84375 -3.21875 L 1.703125 -3.203125 L 1.578125 -3.15625 L 1.5 -3.03125 L 1.515625 -2.203125 L 1.59375 -2.078125 Z M 1.703125 -2.03125 "/></g></g></g><g fill="#000000" fill-opacity="1"><g transform="translate(159.364304, 20.488125)"><g><path d="M 0.421875 -0.171875 L 0.453125 -0.296875 L 0.453125 -0.765625 L 0.4375 -0.90625 L 0.453125 -1 L 0.453125 -1.25 L 0.4375 -1.375 L 0.453125 -1.609375 L 0.4375 -1.84375 L 0.453125 -1.96875 L 0.453125 -3.03125 L 0.4375 -3.140625 L 0.453125 -3.265625 L 0.421875 -3.578125 L 0.453125 -3.75 L 0.4375 -3.984375 L 0.5 -4.109375 L 0.671875 -4.15625 L 1.453125 -4.171875 L 1.5625 -4.15625 L 1.796875 -4.171875 L 1.90625 -4.15625 L 2.171875 -4.171875 L 2.296875 -4.15625 L 2.875 -4.15625 L 3 -4.109375 L 3.0625 -3.984375 L 3.046875 -3.875 L 3.03125 -3.734375 L 3.046875 -3.625 L 3.0625 -3.375 L 3 -3.28125 L 2.875 -3.203125 L 1.734375 -3.203125 L 1.546875 -3.15625 L 1.484375 -2.96875 L 1.5 -2.796875 L 1.578125 -2.6875 L 1.671875 -2.625 L 2.140625 -2.625 L 2.28125 -2.609375 L 2.40625 -2.609375 L 2.53125 -2.625 L 2.765625 -2.625 L 2.859375 -2.546875 L 2.921875 -2.4375 L 2.921875 -1.84375 L 2.859375 -1.734375 L 2.734375 -1.671875 L 2.34375 -1.671875 L 2.03125 -1.6875 L 1.90625 -1.671875 L 1.671875 -1.671875 L 1.578125 -1.609375 L 1.515625 -1.484375 L 1.515625 -1.1875 L 1.5625 -1 L 1.6875 -0.9375 L 1.828125 -0.953125 L 1.953125 -0.9375 L 2.0625 -0.953125 L 2.84375 -0.9375 L 3.03125 -0.875 L 3.109375 -0.765625 L 3.09375 -0.65625 L 3.09375 -0.171875 L 3.03125 -0.046875 L 2.90625 0 L 2.796875 0.015625 L 2.4375 0 L 2.078125 0.015625 L 1.96875 0 L 0.625 0 L 0.5 -0.0625 Z M 0.421875 -0.171875 "/></g></g></g><g fill="#000000" fill-opacity="1"><g transform="translate(162.776265, 20.488125)"><g><path d="M 0.453125 -0.1875 L 0.4375 -0.65625 L 0.453125 -0.78125 L 0.421875 -1.125 L 0.453125 -1.375 L 0.421875 -1.5 L 0.4375 -1.71875 L 0.453125 -1.84375 L 0.453125 -2.15625 L 0.421875 -2.328125 L 0.453125 -3.984375 L 0.5 -4.109375 L 0.609375 -4.171875 L 0.734375 -4.15625 L 0.84375 -4.171875 L 1.09375 -4.15625 L 1.203125 -4.171875 L 1.5625 -4.15625 L 1.671875 -4.171875 L 1.796875 -4.15625 L 1.921875 -4.171875 L 2.21875 -4.171875 L 2.375 -4.15625 L 2.859375 -4.0625 L 3.078125 -3.953125 L 3.375 -3.734375 L 3.421875 -3.640625 L 3.5 -3.546875 L 3.671875 -3.21875 L 3.703125 -3.09375 L 3.71875 -2.984375 L 3.75 -2.875 L 3.734375 -2.40625 L 3.671875 -2.171875 L 3.625 -2.078125 L 3.5625 -1.96875 L 3.53125 -1.859375 L 3.453125 -1.75 L 3.28125 -1.59375 L 3.21875 -1.46875 L 3.234375 -1.328125 L 3.421875 -1.015625 L 3.5 -0.921875 L 3.546875 -0.8125 L 3.625 -0.703125 L 3.671875 -0.609375 L 3.875 -0.3125 L 3.953125 -0.171875 L 3.921875 -0.046875 L 3.796875 -0.015625 L 3.671875 0 L 3.421875 0 L 3.3125 -0.015625 L 3.171875 0 L 2.96875 -0.015625 L 2.8125 -0.046875 L 2.703125 -0.15625 L 2.625 -0.25 L 2.578125 -0.34375 L 2.5 -0.46875 L 2.328125 -0.765625 L 2.28125 -0.875 L 2.125 -1.078125 L 2.03125 -1.1875 L 1.890625 -1.234375 L 1.78125 -1.21875 L 1.671875 -1.21875 L 1.546875 -1.171875 L 1.5 -1.046875 L 1.515625 -0.671875 L 1.5 -0.421875 L 1.515625 -0.296875 L 1.5 -0.171875 L 1.46875 -0.0625 L 1.28125 0 L 1.09375 0 L 0.96875 -0.015625 L 0.734375 0 L 0.625 0 L 0.5 -0.0625 Z M 1.671875 -2.1875 L 1.796875 -2.1875 L 1.921875 -2.171875 L 2.390625 -2.21875 L 2.46875 -2.25 L 2.546875 -2.328125 L 2.609375 -2.421875 L 2.65625 -2.546875 L 2.671875 -2.703125 L 2.671875 -2.875 L 2.625 -2.96875 L 2.5625 -3.0625 L 2.375 -3.171875 L 2.109375 -3.21875 L 1.6875 -3.21875 L 1.5625 -3.15625 L 1.5 -3.03125 L 1.515625 -2.375 L 1.578125 -2.25 Z M 1.671875 -2.1875 "/></g></g></g></svg>